<?xml version="1.0" standalone="no"?>
<!DOCTYPE svg PUBLIC "-//W3C//DTD SVG 1.1//EN" "http://www.w3.org/Graphics/SVG/1.1/DTD/svg11.dtd" >
<svg xmlns="http://www.w3.org/2000/svg" xmlns:xlink="http://www.w3.org/1999/xlink" version="1.1">
<metadata>
Created by FontForge 20200314 at Mon Apr 18 12:22:36 2022
 By User Azfonts
</metadata>
<defs>
<font id="RealMadrid1920Regular" horiz-adv-x="956" >
  <font-face 
    font-family="Real Madrid 19-20"
    font-weight="400"
    font-stretch="normal"
    units-per-em="2048"
    panose-1="0 0 0 0 0 0 0 0 0 0"
    ascent="1638"
    descent="-410"
    x-height="1436"
    cap-height="1436"
    bbox="61 -174 1636 1942"
    underline-thickness="0"
    underline-position="0"
    unicode-range="U+000A-2019"
  />
<missing-glyph horiz-adv-x="1079" 
d="M102 1434h875v-1434h-875v1434zM160 1393l379 -633l381 633h-760zM514 717l-369 614v-1231zM541 674l-379 -631h758zM565 717l371 -621v1239z" />
    <glyph glyph-name=".notdef" horiz-adv-x="1079" 
d="M102 1434h875v-1434h-875v1434zM160 1393l379 -633l381 633h-760zM514 717l-369 614v-1231zM541 674l-379 -631h758zM565 717l371 -621v1239z" />
    <glyph glyph-name=".null" horiz-adv-x="0" 
 />
    <glyph glyph-name=".null" horiz-adv-x="0" 
 />
    <glyph glyph-name="nonmarkingreturn" horiz-adv-x="681" 
 />
    <glyph glyph-name="controlLF" unicode="&#xa;" horiz-adv-x="0" 
 />
    <glyph glyph-name="controlCR" unicode="&#xd;" horiz-adv-x="0" 
 />
    <glyph glyph-name="space" unicode=" " horiz-adv-x="460" 
 />
    <glyph glyph-name="exclam" unicode="!" horiz-adv-x="1116" 
d="M557 1004q203 0 351 -148q147 -147 147 -354q0 -208 -147 -355t-351 -147q-205 0 -350 147q-146 148 -146 355q0 206 146 354t350 148zM558 57q181 0 310 130q129 131 129 315t-129 314t-310 130t-311 -130t-130 -314q0 -185 130 -315t311 -130zM819 293l-8 -10l66 -68
q-63 -72 -152 -111l-113 119q99 21 164 96l8 11l-63 63l-10 -10q-62 -71 -148 -76v39h86v80h-86v27h88v71h-172v-159l-127 135v8q2 103 84 166l121 -127l49 51l246 -260q-15 -22 -33 -45zM256 1065q-13 -8 -25 -2t-15 17q-3 12 5 20q-17 21 4 33q-4 5 -4 12q0 15 21 20
q-13 8 -13 19q0 18 23 20q-6 8 -6 15q0 20 20 20l10 -2q-4 7 -4 12q0 21 21 21q5 0 12 -4v8q0 18 19 18q6 0 14 -6q4 21 20 21q11 0 19 -13q9 9 16 9h8q-2 8 -2 10q0 20 21 20q4 0 14 -6l-2 8q0 21 21 21q7 0 14 -6q5 18 20 18q9 0 17 -8q6 14 18 14h8q7 7 21 12v21h-16v12
h16v17h14v-17h17v-12h-17v-21q12 -5 19 -12h8q13 0 20 -14q8 8 17 8q13 0 18 -18q11 6 17 6q18 0 18 -21v-8q8 6 14 6q21 0 21 -20q0 -3 -4 -10h10q7 0 16 -9q8 13 19 13q14 0 20 -21q6 6 13 6q20 0 20 -18v-8q5 4 12 4q21 0 21 -21q0 -5 -4 -12q8 2 10 2q18 0 18 -20
q0 -8 -4 -15q21 -2 21 -20q0 -11 -11 -19q21 -5 21 -20q0 -7 -4 -12q19 -12 4 -33q17 -15 -4 -33q-17 -12 -31 -2q-16 -12 -41 -4l2 -6q2 -8 -2 -12t-10 -3q-121 58 -251 58t-251 -58q-7 -4 -12 7q-2 5 2 14q-25 -8 -41 4zM311 1065q22 11 43 18v4q-8 1 -22 11q-6 -6 -13 -6
q-1 -14 -10 -23zM428 1104v4q-22 5 -29 22h-4q2 -21 -12 -32l2 -4q15 4 43 10zM377 1163q-4 -14 10 -18q14 -1 17 11q3 14 -10 18q-12 4 -17 -11zM506 1116v4q-16 5 -23 19q-6 -2 -8 -2h-2q-6 -16 -16 -23v-4q23 4 49 6zM580 1118l2 4q-18 8 -23 29h-4q-2 -21 -20 -29v-4h23
h22zM543 1184q-4 -15 10 -19t17 11q3 14 -10 18t-17 -10zM657 1110l2 4q-11 7 -16 23h-4l-6 2q-10 -14 -23 -19v-4q25 -2 47 -6zM731 1094l2 4q-15 11 -14 32h-4q-6 -17 -27 -22v-4q5 -1 19.5 -4.5t23.5 -5.5zM712 1165q-3 -14 10 -17t17 11q5 15 -10 18q-14 3 -17 -12z
M805 1065l2 4q-9 9 -10 23h-2h-2l-6 3q-2 1 -5 1q-13 -9 -22 -9v-4q24 -7 45 -18zM884 1086q3 13 -11 18q-13 4 -17 -10q-5 -15 10 -18t18 10zM881 1145q0 8 -8 8q-7 0 -7 -8t7 -8q8 0 8 8zM865 1192q-7 0 -7 -8t7 -8t7 8t-7 8zM850 1225q-8 0 -8 -7q0 -8 8 -8t8 8q0 7 -8 7
zM842 1167q-28 17 -78 29q-4 -4 -12 -6q4 -7 2 -16q17 -8 12 -27q-6 -23 -33 -17q-1 -20 16 -27t27 9l1 2l1 2q4 21 24 16t15 -26q-1 -3 -6 -8q-2 -18 12 -25q10 -6 25 0q-22 12 -14 33q4 12 14 16q-2 27 -6 45zM823 1255q-8 0 -8 -8t8 -8t8 8t-8 8zM791 1278q-9 0 -9 -8
t9 -8q8 0 8 8t-8 8zM758 1288q-8 0 -8 -7t8 -7t8 7t-8 7zM760 1249q0 -9 -12 -20q20 -4 20 -21q47 -11 68 -26q-16 42 -72 69zM754 1210q0 9 -8 9q-7 0 -7 -9q0 -8 7 -8q8 0 8 8zM739 1257q-8 0 -8 -8t8 -8q9 0 9 8t-9 8zM723 1290q-8 0 -8 -7t8 -7t8 7t-8 7zM696 1319
q-8 0 -8 -7t8 -7q9 0 9 7t-9 7zM664 1341q-9 0 -9 -8t9 -8q8 0 8 8t-8 8zM629 1354q-8 0 -8 -7q0 -8 8 -8t8 8q0 7 -8 7zM593 1364q-7 0 -7 -8t7 -8t7 8t-7 8zM571 1290q4 -4 4 -9q0 -6 -4 -11v-2q73 15 134 -19q-37 82 -132 76q2 -2 2 -4q0 -6 -4 -10v-21zM557 1329
q-8 0 -8 -8t8 -8t8 8t-8 8zM557 1288q-8 0 -8 -7t8 -7t8 7t-8 7zM557 1247q-8 0 -8 -7t8 -7t8 7t-8 7zM525 1364q-7 0 -7 -8t7 -8t7 8t-7 8zM489 1354q-8 0 -8 -7q0 -8 8 -8q9 0 9 8q0 7 -9 7zM455 1341q-9 0 -9 -8t9 -8q8 0 8 8t-8 8zM421 1319q-7 0 -7 -7t7 -7t7 7t-7 7z
M541 1325q-92 6 -131 -76q63 34 135 19v2q-4 5 -4 11q0 5 4 9v21q-4 4 -4 10v2v2zM545 1255q-81 15 -142 -22q-4 -16 -6 -35q9 -2 13 -12q17 1 22 -17q6 -24 -20 -30q8 -21 28 -17q19 5 19 25q-2 6 -2 10q0 21 19 21q20 0 20 -21v-6q4 -18 22 -18q21 0 25 22q-29 0 -29 25
q0 18 18 22q5 17 25 21q23 -5 27 -21q16 -4 16 -22q0 -25 -27 -25q4 -22 25 -22q17 0 23 18v6q0 21 19 21t19 -21q0 -4 -2 -10q0 -20 17 -25q20 -4 31 17q-29 6 -23 30q6 19 25 17q5 10 12 12q-1 18 -8 35q-61 37 -140 22v-6q4 -4 4 -8q0 -12 -18 -18q-16 6 -16 18q0 5 4 10
v4zM395 1290q-8 0 -8 -7t8 -7t8 7t-8 7zM379 1257q-8 0 -8 -8t8 -8t8 8t-8 8zM379 1210q0 9 -8 9q-9 0 -9 -9q0 -8 9 -8q8 0 8 8zM359 1288q-7 0 -7 -7t7 -7q8 0 8 7t-8 7zM328 1278q-9 0 -9 -8t9 -8q8 0 8 8t-8 8zM295 1255q-8 0 -8 -8t8 -8t8 8t-8 8zM352 1251
q-56 -28 -73 -69q25 15 69 26q0 16 21 21q-13 11 -13 20q0 2 -4 2zM352 1196q-58 -17 -78 -29q-4 -21 -6 -45q11 -5 15 -16q7 -21 -17 -33q16 -6 27 0q12 7 10 25l-4 8q-5 21 14 26t25 -16v-2v-2q12 -17 29 -9q15 7 14 27q-27 -6 -33 17q-5 19 12 27q0 8 5 16q-9 2 -13 6z
M268 1225q-8 0 -8 -7q0 -8 8 -8t8 8q0 7 -8 7zM252 1192q-8 0 -8 -8t8 -8t8 8t-8 8zM244 1153q-8 0 -8 -8t8 -8t8 8t-8 8zM233 1096q-4 -14 11 -19q14 -4 17 10q3 15 -9 19q-15 4 -19 -10zM813 1022v-4q0 -2 -2 -2l-23 -8l7 -19l-2 -4q7 -4 -2 -8q-110 50 -234 52
q-120 1 -233 -52q-5 -2 -5 2q-1 4 5 6l-2 4l4 19l-17 10q-6 0 -6 4q123 57 255 57t255 -57zM354 1010q8 0 8 8t-8 8t-8 -8t8 -8zM414 1028l24 16l-28 3l-23 -17zM485 1044q12 0 7 11q-1 4 -7 4q-8 0 -8 -7q0 -8 8 -8zM557 1044l27 11l-27 10l-25 -10zM630 1044q7 0 7 8
q0 7 -7 7t-7 -7q0 -8 7 -8zM698 1028l27 2l-23 17l-28 -3zM760 1010q8 0 8 8t-8 8t-8 -8t8 -8zM338 774l39 -39q-81 -67 -103 -151l-41 43q28 78 105 147zM764 330q-84 -98 -215 -99v-63h-55v72q-95 23 -155 99q-60 77 -60 175q2 129 118 219l-57 62q-139 -114 -145 -287
q-2 -73 25 -132t61 -95l-41 -41q-97 115 -97 264q0 112 57 210q57 97 152 152l97 -104q54 22 108 22q55 -2 105 -22l4 4l96 100q95 -55 152 -151t57 -211q0 -153 -94 -266l-46 45q84 105 84 225q0 85 -39 162q-41 80 -104 125l-59 -60q45 -37 73 -78l-45 -39q-23 41 -69 74
l-115 -125l-121 125q-96 -67 -100 -184q0 -75 43 -128q45 -56 115 -79v209h143v-43h-88v-55h86v-50h-86v-69q46 -5 93 19q50 25 79 61zM555 727q-23 2 -63 -8l65 -68l61 66q-36 10 -63 10z" />
    <glyph glyph-name="numbersign" unicode="#" horiz-adv-x="1116" 
d="M557 1004q203 0 351 -148q147 -147 147 -354q0 -208 -147 -355t-351 -147q-205 0 -350 147q-146 148 -146 355q0 206 146 354t350 148zM558 57q181 0 310 130q129 131 129 315t-129 314t-310 130t-311 -130t-130 -314q0 -185 130 -315t311 -130zM819 293l-8 -10l66 -68
q-63 -72 -152 -111l-113 119q99 21 164 96l8 11l-63 63l-10 -10q-62 -71 -148 -76v39h86v80h-86v27h88v71h-172v-159l-127 135v8q2 103 84 166l121 -127l49 51l246 -260q-15 -22 -33 -45zM256 1065q-13 -8 -25 -2t-15 17q-3 12 5 20q-17 21 4 33q-4 5 -4 12q0 15 21 20
q-13 8 -13 19q0 18 23 20q-6 8 -6 15q0 20 20 20l10 -2q-4 7 -4 12q0 21 21 21q5 0 12 -4v8q0 18 19 18q6 0 14 -6q4 21 20 21q11 0 19 -13q9 9 16 9h8q-2 8 -2 10q0 20 21 20q4 0 14 -6l-2 8q0 21 21 21q7 0 14 -6q5 18 20 18q9 0 17 -8q6 14 18 14h8q7 7 21 12v21h-16v12
h16v17h14v-17h17v-12h-17v-21q12 -5 19 -12h8q13 0 20 -14q8 8 17 8q13 0 18 -18q11 6 17 6q18 0 18 -21v-8q8 6 14 6q21 0 21 -20q0 -3 -4 -10h10q7 0 16 -9q8 13 19 13q14 0 20 -21q6 6 13 6q20 0 20 -18v-8q5 4 12 4q21 0 21 -21q0 -5 -4 -12q8 2 10 2q18 0 18 -20
q0 -8 -4 -15q21 -2 21 -20q0 -11 -11 -19q21 -5 21 -20q0 -7 -4 -12q19 -12 4 -33q17 -15 -4 -33q-17 -12 -31 -2q-16 -12 -41 -4l2 -6q2 -8 -2 -12t-10 -3q-121 58 -251 58t-251 -58q-7 -4 -12 7q-2 5 2 14q-25 -8 -41 4zM311 1065q22 11 43 18v4q-8 1 -22 11q-6 -6 -13 -6
q-1 -14 -10 -23zM428 1104v4q-22 5 -29 22h-4q2 -21 -12 -32l2 -4q15 4 43 10zM377 1163q-4 -14 10 -18q14 -1 17 11q3 14 -10 18q-12 4 -17 -11zM506 1116v4q-16 5 -23 19q-6 -2 -8 -2h-2q-6 -16 -16 -23v-4q23 4 49 6zM580 1118l2 4q-18 8 -23 29h-4q-2 -21 -20 -29v-4h23
h22zM543 1184q-4 -15 10 -19t17 11q3 14 -10 18t-17 -10zM657 1110l2 4q-11 7 -16 23h-4l-6 2q-10 -14 -23 -19v-4q25 -2 47 -6zM731 1094l2 4q-15 11 -14 32h-4q-6 -17 -27 -22v-4q5 -1 19.5 -4.5t23.5 -5.5zM712 1165q-3 -14 10 -17t17 11q5 15 -10 18q-14 3 -17 -12z
M805 1065l2 4q-9 9 -10 23h-2h-2l-6 3q-2 1 -5 1q-13 -9 -22 -9v-4q24 -7 45 -18zM884 1086q3 13 -11 18q-13 4 -17 -10q-5 -15 10 -18t18 10zM881 1145q0 8 -8 8q-7 0 -7 -8t7 -8q8 0 8 8zM865 1192q-7 0 -7 -8t7 -8t7 8t-7 8zM850 1225q-8 0 -8 -7q0 -8 8 -8t8 8q0 7 -8 7
zM842 1167q-28 17 -78 29q-4 -4 -12 -6q4 -7 2 -16q17 -8 12 -27q-6 -23 -33 -17q-1 -20 16 -27t27 9l1 2l1 2q4 21 24 16t15 -26q-1 -3 -6 -8q-2 -18 12 -25q10 -6 25 0q-22 12 -14 33q4 12 14 16q-2 27 -6 45zM823 1255q-8 0 -8 -8t8 -8t8 8t-8 8zM791 1278q-9 0 -9 -8
t9 -8q8 0 8 8t-8 8zM758 1288q-8 0 -8 -7t8 -7t8 7t-8 7zM760 1249q0 -9 -12 -20q20 -4 20 -21q47 -11 68 -26q-16 42 -72 69zM754 1210q0 9 -8 9q-7 0 -7 -9q0 -8 7 -8q8 0 8 8zM739 1257q-8 0 -8 -8t8 -8q9 0 9 8t-9 8zM723 1290q-8 0 -8 -7t8 -7t8 7t-8 7zM696 1319
q-8 0 -8 -7t8 -7q9 0 9 7t-9 7zM664 1341q-9 0 -9 -8t9 -8q8 0 8 8t-8 8zM629 1354q-8 0 -8 -7q0 -8 8 -8t8 8q0 7 -8 7zM593 1364q-7 0 -7 -8t7 -8t7 8t-7 8zM571 1290q4 -4 4 -9q0 -6 -4 -11v-2q73 15 134 -19q-37 82 -132 76q2 -2 2 -4q0 -6 -4 -10v-21zM557 1329
q-8 0 -8 -8t8 -8t8 8t-8 8zM557 1288q-8 0 -8 -7t8 -7t8 7t-8 7zM557 1247q-8 0 -8 -7t8 -7t8 7t-8 7zM525 1364q-7 0 -7 -8t7 -8t7 8t-7 8zM489 1354q-8 0 -8 -7q0 -8 8 -8q9 0 9 8q0 7 -9 7zM455 1341q-9 0 -9 -8t9 -8q8 0 8 8t-8 8zM421 1319q-7 0 -7 -7t7 -7t7 7t-7 7z
M541 1325q-92 6 -131 -76q63 34 135 19v2q-4 5 -4 11q0 5 4 9v21q-4 4 -4 10v2v2zM545 1255q-81 15 -142 -22q-4 -16 -6 -35q9 -2 13 -12q17 1 22 -17q6 -24 -20 -30q8 -21 28 -17q19 5 19 25q-2 6 -2 10q0 21 19 21q20 0 20 -21v-6q4 -18 22 -18q21 0 25 22q-29 0 -29 25
q0 18 18 22q5 17 25 21q23 -5 27 -21q16 -4 16 -22q0 -25 -27 -25q4 -22 25 -22q17 0 23 18v6q0 21 19 21t19 -21q0 -4 -2 -10q0 -20 17 -25q20 -4 31 17q-29 6 -23 30q6 19 25 17q5 10 12 12q-1 18 -8 35q-61 37 -140 22v-6q4 -4 4 -8q0 -12 -18 -18q-16 6 -16 18q0 5 4 10
v4zM395 1290q-8 0 -8 -7t8 -7t8 7t-8 7zM379 1257q-8 0 -8 -8t8 -8t8 8t-8 8zM379 1210q0 9 -8 9q-9 0 -9 -9q0 -8 9 -8q8 0 8 8zM359 1288q-7 0 -7 -7t7 -7q8 0 8 7t-8 7zM328 1278q-9 0 -9 -8t9 -8q8 0 8 8t-8 8zM295 1255q-8 0 -8 -8t8 -8t8 8t-8 8zM352 1251
q-56 -28 -73 -69q25 15 69 26q0 16 21 21q-13 11 -13 20q0 2 -4 2zM352 1196q-58 -17 -78 -29q-4 -21 -6 -45q11 -5 15 -16q7 -21 -17 -33q16 -6 27 0q12 7 10 25l-4 8q-5 21 14 26t25 -16v-2v-2q12 -17 29 -9q15 7 14 27q-27 -6 -33 17q-5 19 12 27q0 8 5 16q-9 2 -13 6z
M268 1225q-8 0 -8 -7q0 -8 8 -8t8 8q0 7 -8 7zM252 1192q-8 0 -8 -8t8 -8t8 8t-8 8zM244 1153q-8 0 -8 -8t8 -8t8 8t-8 8zM233 1096q-4 -14 11 -19q14 -4 17 10q3 15 -9 19q-15 4 -19 -10zM338 774l39 -39q-81 -67 -103 -151l-41 43q28 78 105 147zM813 1022v-4q0 -2 -2 -2
l-23 -8l7 -19l-2 -4q7 -4 -2 -8q-110 50 -234 52q-120 1 -233 -52q-5 -2 -5 2q-1 4 5 6l-2 4l4 19l-17 10q-6 0 -6 4q123 57 255 57t255 -57zM354 1010q8 0 8 8t-8 8t-8 -8t8 -8zM414 1028l24 16l-28 3l-23 -17zM485 1044q12 0 7 11q-1 4 -7 4q-8 0 -8 -7q0 -8 8 -8z
M557 1044l27 11l-27 10l-25 -10zM630 1044q7 0 7 8q0 7 -7 7t-7 -7q0 -8 7 -8zM698 1028l27 2l-23 17l-28 -3zM760 1010q8 0 8 8t-8 8t-8 -8t8 -8zM764 330q-84 -98 -215 -99v-63h-55v72q-95 23 -155 99q-60 77 -60 175q2 129 118 219l-57 62q-139 -114 -145 -287
q-2 -73 25 -132t61 -95l-41 -41q-97 115 -97 264q0 112 57 210q57 97 152 152l99 -104q51 22 106 22q55 -2 105 -22l4 4l96 100q95 -55 152 -151t57 -211q0 -153 -94 -266l-46 45q84 105 84 225q0 85 -39 162q-41 80 -104 125l-59 -60q45 -37 73 -78l-45 -39q-23 41 -69 74
l-115 -125l-121 125q-96 -67 -100 -184q0 -75 43 -128q45 -56 115 -79v209h143v-43h-88v-55h86v-50h-86v-69q48 -5 94 19q50 26 78 61zM555 727q-23 2 -63 -8l65 -68l62 66q-36 10 -64 10z" />
    <glyph glyph-name="dollar" unicode="$" horiz-adv-x="1116" 
d="M256 1065q-13 -8 -25 -2t-15 17q-3 12 5 20q-17 21 4 33q-4 5 -4 12q0 15 21 20q-13 8 -13 19q0 18 23 20q-6 8 -6 15q0 20 20 20l10 -2q-4 7 -4 12q0 21 21 21q5 0 12 -4v8q0 18 19 18q6 0 14 -6q4 21 20 21q11 0 19 -13q9 9 16 9h8q-2 8 -2 10q0 20 21 20q4 0 14 -6
l-2 8q0 21 21 21q7 0 14 -6q5 18 20 18q9 0 17 -8q6 14 18 14h8q7 7 21 12v21h-16v12h16v17h14v-17h17v-12h-17v-21q12 -5 19 -12h8q13 0 20 -14q8 8 17 8q13 0 18 -18q11 6 17 6q18 0 18 -21v-8q8 6 14 6q21 0 21 -20q0 -3 -4 -10h10q7 0 16 -9q8 13 19 13q14 0 20 -21
q6 6 13 6q20 0 20 -18v-8q5 4 12 4q21 0 21 -21q0 -5 -4 -12q8 2 10 2q18 0 18 -20q0 -8 -4 -15q21 -2 21 -20q0 -11 -11 -19q21 -5 21 -20q0 -7 -4 -12q19 -12 4 -33q17 -15 -4 -33q-17 -12 -31 -2q-16 -12 -41 -4l2 -6q2 -8 -2 -12t-10 -3q-121 58 -251 58t-251 -58
q-7 -4 -12 7q-2 5 2 14q-25 -8 -41 4zM311 1065q22 11 43 18v4q-8 1 -22 11q-6 -6 -13 -6q-1 -14 -10 -23zM428 1104v4q-22 5 -29 22h-4q2 -21 -12 -32l2 -4q15 4 43 10zM377 1163q-4 -14 10 -18q14 -1 17 11q3 14 -10 18q-12 4 -17 -11zM506 1116v4q-16 5 -23 19
q-6 -2 -8 -2h-2q-6 -16 -16 -23v-4q23 4 49 6zM580 1118l2 4q-18 8 -23 29h-4q-2 -21 -20 -29v-4h23h22zM543 1184q-4 -15 10 -19t17 11q3 14 -10 18t-17 -10zM657 1110l2 4q-11 7 -16 23h-4l-6 2q-10 -14 -23 -19v-4q25 -2 47 -6zM731 1094l2 4q-16 11 -14 33h-4
q-6 -19 -27 -23v-4q5 -1 19.5 -4.5t23.5 -5.5zM712 1165q-3 -14 10 -17t17 11q5 15 -10 18q-14 3 -17 -12zM805 1065l2 4q-9 9 -10 23h-2h-2l-6 3q-2 1 -5 1q-13 -9 -22 -9v-4q24 -7 45 -18zM884 1086q3 13 -11 18q-13 4 -17 -10q-5 -15 10 -18t18 10zM881 1145q0 8 -8 8
q-7 0 -7 -8t7 -8q8 0 8 8zM865 1192q-7 0 -7 -8t7 -8t7 8t-7 8zM850 1225q-8 0 -8 -7q0 -8 8 -8t8 8q0 7 -8 7zM842 1167q-28 17 -78 29q-4 -4 -12 -6q4 -7 2 -16q17 -8 12 -27q-6 -22 -33 -16q-1 -21 16 -28t27 9l1 2l1 2q4 21 24 16t15 -26q-1 -3 -6 -8q-2 -18 12 -25
q10 -6 25 0q-22 12 -14 33q4 12 14 16q-2 27 -6 45zM823 1255q-8 0 -8 -8t8 -8t8 8t-8 8zM791 1278q-9 0 -9 -8t9 -8q8 0 8 8t-8 8zM758 1288q-8 0 -8 -7t8 -7t8 7t-8 7zM760 1249q0 -9 -12 -20q20 -4 20 -21q47 -11 68 -26q-16 42 -72 69zM754 1210q0 9 -8 9q-7 0 -7 -9
q0 -8 7 -8q8 0 8 8zM739 1257q-8 0 -8 -8t8 -8q9 0 9 8t-9 8zM723 1290q-8 0 -8 -7t8 -7t8 7t-8 7zM696 1319q-8 0 -8 -7t8 -7q9 0 9 7t-9 7zM664 1341q-9 0 -9 -8t9 -8q8 0 8 8t-8 8zM629 1354q-8 0 -8 -7q0 -8 8 -8t8 8q0 7 -8 7zM593 1364q-7 0 -7 -8t7 -8t7 8t-7 8z
M571 1290q4 -4 4 -9q0 -6 -4 -11v-2q73 15 134 -19q-37 82 -132 76q2 -2 2 -4q0 -6 -4 -10v-21zM557 1329q-8 0 -8 -8t8 -8t8 8t-8 8zM557 1288q-8 0 -8 -7t8 -7t8 7t-8 7zM557 1247q-8 0 -8 -7t8 -7t8 7t-8 7zM525 1364q-7 0 -7 -8t7 -8t7 8t-7 8zM489 1354q-8 0 -8 -7
q0 -8 8 -8q9 0 9 8q0 7 -9 7zM455 1341q-9 0 -9 -8t9 -8q8 0 8 8t-8 8zM421 1319q-7 0 -7 -7t7 -7t7 7t-7 7zM541 1325q-92 6 -131 -76q63 34 135 19v2q-4 5 -4 11q0 5 4 9v21q-4 4 -4 10v2v2zM545 1255q-81 15 -142 -22q-4 -16 -6 -35q9 -2 13 -12q17 1 22 -17
q6 -24 -20 -30q8 -21 28 -17q19 5 19 25q-2 6 -2 10q0 21 19 21q20 0 20 -21v-6q4 -18 22 -18q21 0 25 22q-29 0 -29 25q0 18 18 22q5 17 25 21q23 -5 27 -21q16 -4 16 -22q0 -25 -27 -25q4 -22 25 -22q17 0 23 18v6q0 21 19 21t19 -21q0 -4 -2 -10q0 -20 17 -25
q20 -4 31 17q-29 6 -23 30q6 19 25 17q5 10 12 12q-1 18 -8 35q-61 37 -140 22v-6q4 -4 4 -8q0 -12 -18 -18q-16 6 -16 18q0 5 4 10v4zM395 1290q-8 0 -8 -7t8 -7t8 7t-8 7zM379 1257q-8 0 -8 -8t8 -8t8 8t-8 8zM379 1210q0 9 -8 9q-9 0 -9 -9q0 -8 9 -8q8 0 8 8zM359 1288
q-7 0 -7 -7t7 -7q8 0 8 7t-8 7zM328 1278q-9 0 -9 -8t9 -8q8 0 8 8t-8 8zM295 1255q-8 0 -8 -8t8 -8t8 8t-8 8zM352 1251q-56 -28 -73 -69q25 15 69 26q0 16 21 21q-13 11 -13 20q0 2 -4 2zM352 1196q-58 -17 -78 -29q-4 -21 -6 -45q11 -5 15 -16q7 -21 -17 -33q16 -6 27 0
q12 7 10 25l-4 8q-5 21 14 26t25 -16v-2v-2q12 -17 29 -9q15 7 14 28q-27 -6 -33 16q-5 19 12 27q0 8 5 16q-9 2 -13 6zM268 1225q-8 0 -8 -7q0 -8 8 -8t8 8q0 7 -8 7zM252 1192q-8 0 -8 -8t8 -8t8 8t-8 8zM244 1153q-8 0 -8 -8t8 -8t8 8t-8 8zM233 1096q-4 -14 11 -19
q14 -4 17 10q3 15 -9 19q-15 4 -19 -10zM557 1004q203 0 351 -148q147 -147 147 -354q0 -208 -147 -355t-351 -147q-205 0 -350 147q-146 148 -146 355q0 206 146 354t350 148zM558 57q181 0 310 130q129 131 129 315t-129 314t-310 130t-311 -130t-130 -314
q0 -185 130 -315t311 -130zM819 293l-8 -10l66 -68q-63 -72 -152 -111l-113 119q99 21 164 96l8 11l-63 63l-10 -10q-62 -71 -148 -76v39h86v80h-86v27h88v71h-172v-159l-127 135v8q2 103 84 166l121 -127l49 51l246 -260q-15 -22 -33 -45zM813 1022v-4q0 -2 -2 -2l-23 -8
l7 -19l-2 -4q7 -4 -2 -8q-110 50 -234 52q-120 1 -233 -52q-5 -2 -5 2q-1 4 5 6l-2 4l4 19l-17 10q-6 0 -6 4q123 57 255 57t255 -57zM354 1010q8 0 8 8t-8 8t-8 -8t8 -8zM414 1028l24 16l-28 3l-23 -17zM485 1044q12 0 7 11q-1 4 -7 4q-8 0 -8 -7q0 -8 8 -8zM557 1044
l27 11l-27 10l-25 -10zM630 1044q7 0 7 8q0 7 -7 7t-7 -7q0 -8 7 -8zM698 1028l27 2l-23 17l-28 -3zM760 1010q8 0 8 8t-8 8t-8 -8t8 -8zM764 330q-84 -98 -215 -99v-63h-55v72q-95 23 -155 99q-60 77 -60 175q2 129 118 219l-57 62q-139 -114 -145 -287q-2 -73 25 -132
t61 -95l-41 -41q-97 115 -97 264q0 112 57 210q57 97 152 152l99 -104q51 22 106 22q55 -2 105 -22l4 4l96 100q95 -55 152 -151t57 -211q0 -153 -94 -266l-46 45q84 105 84 225q0 85 -39 162q-41 80 -104 125l-59 -60q45 -37 73 -78l-45 -39q-23 41 -69 74l-115 -125
l-121 125q-96 -67 -100 -184q0 -75 43 -128q45 -56 115 -79v209h143v-43h-88v-55h86v-50h-86v-69q48 -5 94 19q50 26 78 61zM555 727q-23 2 -63 -8l65 -68l62 66q-36 10 -64 10zM338 774l39 -39q-81 -67 -103 -151l-41 43q28 78 105 147z" />
    <glyph glyph-name="percent" unicode="%" horiz-adv-x="1116" 
d="M557 1004q203 0 351 -148q147 -147 147 -354q0 -208 -147 -355t-351 -147q-205 0 -350 147q-146 148 -146 355q0 206 146 354t350 148zM558 57q181 0 310 130q129 131 129 315t-129 314t-310 130t-311 -130t-130 -314q0 -185 130 -315t311 -130zM338 774l39 -39
q-81 -67 -103 -151l-41 43q28 78 105 147zM819 293l-8 -10l66 -68q-63 -72 -152 -111l-113 119q99 21 164 96l8 11l-63 63l-10 -10q-62 -71 -148 -76v39h86v80h-86v27h88v71h-172v-159l-127 135v8q2 103 84 166l121 -127l49 51l246 -260q-15 -22 -33 -45zM256 1065
q-13 -8 -25 -2t-15 17q-3 12 5 20q-17 21 4 33q-4 5 -4 12q0 15 21 20q-13 8 -13 19q0 18 23 20q-6 8 -6 15q0 20 20 20l10 -2q-4 7 -4 12q0 21 21 21q5 0 12 -4v8q0 18 19 18q6 0 14 -6q4 21 20 21q11 0 19 -13q9 9 16 9h8q-2 8 -2 10q0 20 21 20q4 0 14 -6l-2 8
q0 21 21 21q7 0 14 -6q5 18 20 18q9 0 17 -8q6 14 18 14h8q7 7 21 12v21h-16v12h16v17h14v-17h17v-12h-17v-21q12 -5 19 -12h8q13 0 20 -14q8 8 17 8q13 0 18 -18q11 6 17 6q18 0 18 -21v-8q8 6 14 6q21 0 21 -20q0 -3 -4 -10h10q7 0 16 -9q8 13 19 13q14 0 18 -21q8 6 15 6
q20 0 20 -18v-8q5 4 12 4q21 0 21 -21q0 -5 -4 -12q8 2 10 2q18 0 18 -20q0 -8 -4 -15q21 -2 21 -20q0 -11 -11 -19q21 -5 21 -20q0 -7 -4 -12q19 -12 4 -33q17 -15 -4 -33q-17 -12 -31 -2q-16 -12 -41 -4l2 -6q2 -8 -2 -12t-10 -3q-121 58 -251 58t-251 -58q-7 -4 -12 7
q-2 5 2 14q-25 -8 -41 4zM311 1065q22 11 43 18v4q-8 1 -22 11q-6 -6 -13 -6q-1 -14 -10 -23zM428 1104v4q-22 5 -29 22h-4q2 -21 -12 -32l2 -4q15 4 43 10zM377 1163q-4 -14 10 -18q14 -1 17 11q3 14 -10 18q-12 4 -17 -11zM506 1116v4q-16 5 -23 19q-6 -2 -8 -2h-2
q-6 -16 -16 -23v-4q23 4 49 6zM580 1118l2 4q-18 8 -23 29h-4q-2 -21 -20 -29v-4h23h22zM543 1184q-4 -15 10 -19t17 11q3 14 -10 18t-17 -10zM657 1110l2 4q-11 7 -16 23h-4l-6 2q-10 -14 -23 -19v-4q25 -2 47 -6zM731 1094l2 4q-15 11 -14 32h-4q-6 -17 -27 -22v-4
q5 -1 19.5 -4.5t23.5 -5.5zM712 1165q-3 -14 10 -17t17 11q5 15 -10 18q-14 3 -17 -12zM805 1065l2 4q-9 9 -10 23h-2h-2l-6 3q-2 1 -5 1q-13 -9 -22 -9v-4q24 -7 45 -18zM884 1086q3 13 -11 18q-13 4 -17 -10q-5 -15 10 -18t18 10zM881 1145q0 8 -8 8q-7 0 -7 -8t7 -8
q8 0 8 8zM865 1192q-7 0 -7 -8t7 -8t7 8t-7 8zM850 1225q-8 0 -8 -7q0 -8 8 -8t8 8q0 7 -8 7zM842 1167q-28 17 -78 29q-4 -4 -12 -6q4 -7 2 -16q17 -8 12 -27q-6 -23 -33 -17q-1 -20 16 -27t27 9l1 2l1 2q4 21 24 16t15 -26q-1 -3 -6 -8q-2 -18 12 -25q10 -6 25 0
q-22 12 -14 33q4 12 14 16q-2 27 -6 45zM823 1255q-8 0 -8 -8t8 -8t8 8t-8 8zM791 1278q-9 0 -9 -8t9 -8q8 0 8 8t-8 8zM758 1288q-8 0 -8 -7t8 -7t8 7t-8 7zM760 1249q0 -9 -12 -20q20 -4 20 -21q47 -11 68 -26q-16 42 -72 69zM754 1210q0 9 -8 9q-7 0 -7 -9q0 -8 7 -8
q8 0 8 8zM739 1257q-8 0 -8 -8t8 -8q9 0 9 8t-9 8zM723 1290q-8 0 -8 -7t8 -7t8 7t-8 7zM696 1319q-8 0 -8 -7t8 -7q9 0 9 7t-9 7zM664 1341q-9 0 -9 -8t9 -8q8 0 8 8t-8 8zM629 1354q-8 0 -8 -7q0 -8 8 -8t8 8q0 7 -8 7zM593 1364q-7 0 -7 -8t7 -8t7 8t-7 8zM571 1290
q4 -4 4 -9q0 -6 -4 -11v-2q73 15 134 -19q-37 82 -132 76q2 -2 2 -4q0 -6 -4 -10v-21zM557 1329q-8 0 -8 -8t8 -8t8 8t-8 8zM557 1288q-8 0 -8 -7t8 -7t8 7t-8 7zM557 1247q-8 0 -8 -7t8 -7t8 7t-8 7zM525 1364q-7 0 -7 -8t7 -8t7 8t-7 8zM489 1354q-8 0 -8 -7q0 -8 8 -8
q9 0 9 8q0 7 -9 7zM455 1341q-9 0 -9 -8t9 -8q8 0 8 8t-8 8zM421 1319q-7 0 -7 -7t7 -7t7 7t-7 7zM541 1325q-92 6 -131 -76q63 34 135 19v2q-4 5 -4 11q0 5 4 9v21q-4 4 -4 10v2v2zM545 1255q-81 15 -142 -22q-4 -16 -6 -35q9 -2 13 -12q17 1 22 -17q6 -24 -20 -30
q8 -21 28 -17q19 5 19 25q-2 6 -2 10q0 21 19 21q20 0 20 -21v-6q4 -18 22 -18q21 0 25 22q-29 0 -29 25q0 18 18 22q5 17 25 21q23 -5 27 -21q16 -4 16 -22q0 -25 -27 -25q4 -22 25 -22q17 0 23 18v6q0 21 19 21t19 -21q0 -4 -2 -10q0 -20 17 -25q20 -4 31 17q-29 6 -23 30
q6 19 25 17q5 10 12 12q-1 18 -8 35q-61 37 -140 22v-6q4 -4 4 -8q0 -12 -18 -18q-16 6 -16 18q0 5 4 10v4zM395 1290q-8 0 -8 -7t8 -7t8 7t-8 7zM379 1257q-8 0 -8 -8t8 -8t8 8t-8 8zM379 1210q0 9 -8 9q-9 0 -9 -9q0 -8 9 -8q8 0 8 8zM359 1288q-7 0 -7 -7t7 -7q8 0 8 7
t-8 7zM328 1278q-9 0 -9 -8t9 -8q8 0 8 8t-8 8zM295 1255q-8 0 -8 -8t8 -8t8 8t-8 8zM352 1251q-56 -28 -73 -69q25 15 69 26q0 16 21 21q-13 11 -13 20q0 2 -4 2zM352 1196q-58 -17 -78 -29q-4 -21 -6 -45q11 -5 15 -16q7 -21 -17 -33q16 -6 27 0q12 7 10 25l-4 8
q-5 21 14 26t25 -16v-2v-2q12 -17 29 -9q15 7 14 27q-27 -6 -33 17q-5 19 12 27q0 8 5 16q-9 2 -13 6zM268 1225q-8 0 -8 -7q0 -8 8 -8t8 8q0 7 -8 7zM252 1192q-8 0 -8 -8t8 -8t8 8t-8 8zM244 1153q-8 0 -8 -8t8 -8t8 8t-8 8zM233 1096q-4 -14 11 -19q14 -4 17 10
q3 15 -9 19q-15 4 -19 -10zM764 330q-84 -98 -215 -99v-63h-55v72q-95 23 -155 99q-60 77 -60 175q2 129 118 219l-57 62q-139 -114 -145 -287q-2 -73 25 -132t61 -95l-41 -41q-97 115 -97 264q0 112 57 210q57 97 152 152l97 -104q54 22 108 22q55 -2 105 -22l4 4l96 100
q95 -55 152 -151t57 -211q0 -153 -94 -266l-46 45q84 105 84 225q0 85 -39 162q-41 80 -104 125l-59 -60q45 -37 73 -78l-45 -39q-23 41 -69 74l-115 -125l-121 125q-96 -67 -100 -184q0 -75 43 -128q45 -56 115 -79v209h143v-43h-88v-55h86v-50h-86v-69q46 -5 93 19
q50 25 79 61zM555 727q-23 2 -63 -8l65 -68l61 66q-36 10 -63 10zM813 1022v-4q0 -2 -2 -2l-23 -8l7 -19l-2 -4q7 -4 -2 -8q-110 50 -234 52q-120 1 -233 -52q-5 -2 -5 2q-1 4 5 6l-2 4l4 19l-17 10q-6 0 -6 4q123 57 255 57t255 -57zM354 1010q8 0 8 8t-8 8t-8 -8t8 -8z
M414 1028l24 16l-28 3l-23 -17zM485 1044q12 0 7 11q-1 4 -7 4q-8 0 -8 -7q0 -8 8 -8zM557 1044l27 11l-27 10l-25 -10zM630 1044q7 0 7 8q0 7 -7 7t-7 -7q0 -8 7 -8zM698 1028l27 2l-23 17l-28 -3zM760 1010q8 0 8 8t-8 8t-8 -8t8 -8z" />
    <glyph glyph-name="ampersand" unicode="&#x26;" horiz-adv-x="1116" 
d="M256 1065q-13 -8 -25 -2t-15 17q-3 12 5 20q-17 21 4 33q-4 5 -4 12q0 15 21 20q-13 8 -13 19q0 18 23 20q-6 8 -6 15q0 20 20 20l10 -2q-4 7 -4 12q0 21 21 21q5 0 12 -4v8q0 18 19 18q6 0 14 -6q4 21 20 21q11 0 19 -13q9 9 16 9h8q-2 8 -2 10q0 20 21 20q4 0 14 -6
l-2 8q0 21 21 21q7 0 14 -6q5 18 20 18q9 0 17 -8q6 14 18 14h8q7 7 21 12v21h-16v12h16v17h14v-17h17v-12h-17v-21q12 -5 19 -12h8q13 0 20 -14q8 8 17 8q13 0 18 -18q11 6 17 6q18 0 18 -21v-8q8 6 14 6q21 0 21 -20q0 -3 -4 -10h10q7 0 16 -9q8 13 19 13q14 0 20 -21
q6 6 13 6q20 0 20 -18v-8q5 4 12 4q21 0 21 -21q0 -5 -4 -12q8 2 10 2q18 0 18 -20q0 -8 -4 -15q21 -2 21 -20q0 -11 -11 -19q21 -5 21 -20q0 -7 -4 -12q19 -12 4 -33q17 -15 -4 -33q-17 -12 -31 -2q-16 -12 -41 -4l2 -6q2 -8 -2 -12t-10 -3q-121 58 -251 58t-251 -58
q-7 -4 -12 7q-2 5 2 14q-25 -8 -41 4zM311 1065q22 11 43 18v4q-8 1 -22 11q-6 -6 -13 -6q-1 -14 -10 -23zM428 1104v4q-22 5 -29 22h-4q2 -21 -12 -32l2 -4q15 4 43 10zM377 1163q-4 -14 10 -18q14 -1 17 11q3 14 -10 18q-12 4 -17 -11zM506 1116v4q-16 5 -23 19
q-6 -2 -8 -2h-2q-6 -16 -16 -23v-4q23 4 49 6zM580 1118l2 4q-18 8 -23 29h-4q-2 -21 -20 -29v-4h23h22zM543 1184q-4 -15 10 -19t17 11q3 14 -10 18t-17 -10zM657 1110l2 4q-11 7 -16 23h-4l-6 2q-10 -14 -23 -19v-4q25 -2 47 -6zM731 1094l2 4q-16 11 -14 33h-4
q-6 -19 -27 -23v-4q5 -1 19.5 -4.5t23.5 -5.5zM712 1165q-3 -14 10 -17t17 11q5 15 -10 18q-14 3 -17 -12zM805 1065l2 4q-9 9 -10 23h-2h-2l-6 3q-2 1 -5 1q-13 -9 -22 -9v-4q24 -7 45 -18zM884 1086q3 13 -11 18q-13 4 -17 -10q-5 -15 10 -18t18 10zM881 1145q0 8 -8 8
q-7 0 -7 -8t7 -8q8 0 8 8zM865 1192q-7 0 -7 -8t7 -8t7 8t-7 8zM850 1225q-8 0 -8 -7q0 -8 8 -8t8 8q0 7 -8 7zM842 1167q-28 17 -78 29q-4 -4 -12 -6q4 -7 2 -16q17 -8 12 -27q-6 -22 -33 -16q-1 -21 16 -28t27 9l1 2l1 2q4 21 24 16t15 -26q-1 -3 -6 -8q-2 -18 12 -25
q10 -6 25 0q-22 12 -14 33q4 12 14 16q-2 27 -6 45zM823 1255q-8 0 -8 -8t8 -8t8 8t-8 8zM791 1278q-9 0 -9 -8t9 -8q8 0 8 8t-8 8zM758 1288q-8 0 -8 -7t8 -7t8 7t-8 7zM760 1249q0 -9 -12 -20q20 -4 20 -21q47 -11 68 -26q-16 42 -72 69zM754 1210q0 9 -8 9q-7 0 -7 -9
q0 -8 7 -8q8 0 8 8zM739 1257q-8 0 -8 -8t8 -8q9 0 9 8t-9 8zM723 1290q-8 0 -8 -7t8 -7t8 7t-8 7zM696 1319q-8 0 -8 -7t8 -7q9 0 9 7t-9 7zM664 1341q-9 0 -9 -8t9 -8q8 0 8 8t-8 8zM629 1354q-8 0 -8 -7q0 -8 8 -8t8 8q0 7 -8 7zM593 1364q-7 0 -7 -8t7 -8t7 8t-7 8z
M571 1290q4 -4 4 -9q0 -6 -4 -11v-2q73 15 134 -19q-37 82 -132 76q2 -2 2 -4q0 -6 -4 -10v-21zM557 1329q-8 0 -8 -8t8 -8t8 8t-8 8zM557 1288q-8 0 -8 -7t8 -7t8 7t-8 7zM557 1247q-8 0 -8 -7t8 -7t8 7t-8 7zM525 1364q-7 0 -7 -8t7 -8t7 8t-7 8zM489 1354q-8 0 -8 -7
q0 -8 8 -8q9 0 9 8q0 7 -9 7zM455 1341q-9 0 -9 -8t9 -8q8 0 8 8t-8 8zM421 1319q-7 0 -7 -7t7 -7t7 7t-7 7zM541 1325q-92 6 -131 -76q63 34 135 19v2q-4 5 -4 11q0 5 4 9v21q-4 4 -4 10v2v2zM545 1255q-81 15 -142 -22q-4 -16 -6 -35q9 -2 13 -12q17 1 22 -17
q6 -24 -20 -30q8 -21 28 -17q19 5 19 25q-2 6 -2 10q0 21 19 21q20 0 20 -21v-6q4 -18 22 -18q21 0 25 22q-29 0 -29 25q0 18 18 22q5 17 25 21q23 -5 27 -21q16 -4 16 -22q0 -25 -27 -25q4 -22 25 -22q17 0 23 18v6q0 21 19 21t19 -21q0 -4 -2 -10q0 -20 17 -25
q20 -4 31 17q-29 6 -23 30q6 19 25 17q5 10 12 12q-1 18 -8 35q-61 37 -140 22v-6q4 -4 4 -8q0 -12 -18 -18q-16 6 -16 18q0 5 4 10v4zM395 1290q-8 0 -8 -7t8 -7t8 7t-8 7zM379 1257q-8 0 -8 -8t8 -8t8 8t-8 8zM379 1210q0 9 -8 9q-9 0 -9 -9q0 -8 9 -8q8 0 8 8zM359 1288
q-7 0 -7 -7t7 -7q8 0 8 7t-8 7zM328 1278q-9 0 -9 -8t9 -8q8 0 8 8t-8 8zM295 1255q-8 0 -8 -8t8 -8t8 8t-8 8zM352 1251q-56 -28 -73 -69q25 15 69 26q0 16 21 21q-13 11 -13 20q0 2 -4 2zM352 1196q-58 -17 -78 -29q-4 -21 -6 -45q11 -5 15 -16q7 -21 -17 -33q16 -6 27 0
q12 7 10 25l-4 8q-5 21 14 26t25 -16v-2v-2q12 -17 29 -9q15 7 14 28q-27 -6 -33 16q-5 19 12 27q0 8 5 16q-9 2 -13 6zM268 1225q-8 0 -8 -7q0 -8 8 -8t8 8q0 7 -8 7zM252 1192q-8 0 -8 -8t8 -8t8 8t-8 8zM244 1153q-8 0 -8 -8t8 -8t8 8t-8 8zM233 1096q-4 -14 11 -19
q14 -4 17 10q3 15 -9 19q-15 4 -19 -10zM557 1004q203 0 351 -148q147 -147 147 -354q0 -208 -147 -355t-351 -147q-205 0 -350 147q-146 148 -146 355q0 206 146 354t350 148zM558 57q181 0 310 130q129 131 129 315t-129 314t-310 130t-311 -130t-130 -314
q0 -185 130 -315t311 -130zM338 774l39 -39q-81 -67 -103 -151l-41 43q28 78 105 147zM819 293l-8 -10l66 -68q-63 -72 -152 -111l-113 119q99 21 164 96l8 11l-63 63l-10 -10q-62 -71 -148 -76v39h86v80h-86v27h88v71h-172v-159l-127 135v8q2 103 84 166l121 -127l49 51
l246 -260q-15 -22 -33 -45zM764 330q-84 -98 -215 -99v-63h-55v72q-95 23 -155 99q-60 77 -60 175q2 129 118 219l-57 62q-139 -114 -145 -287q-2 -73 25 -132t61 -95l-41 -41q-97 115 -97 264q0 112 57 210q57 97 152 152l99 -104q51 22 106 22q55 -2 105 -22l4 4l96 100
q95 -55 152 -151t57 -211q0 -153 -94 -266l-46 45q84 105 84 225q0 85 -39 162q-41 80 -104 125l-59 -60q45 -37 73 -78l-45 -39q-23 41 -69 74l-115 -125l-121 125q-96 -67 -100 -184q0 -75 43 -128q45 -56 115 -79v209h143v-43h-88v-55h86v-50h-86v-69q46 -5 93 19
q50 25 79 61zM555 727q-23 2 -63 -8l65 -68l61 66q-36 10 -63 10zM813 1022v-4q0 -2 -2 -2l-23 -8l7 -19l-2 -4q7 -4 -2 -8q-110 50 -234 52q-120 1 -233 -52q-5 -2 -5 2q-1 4 5 6l-2 4l4 19l-17 10q-6 0 -6 4q123 57 255 57t255 -57zM354 1010q8 0 8 8t-8 8t-8 -8t8 -8z
M414 1028l24 16l-28 3l-23 -17zM485 1044q12 0 7 11q-1 4 -7 4q-8 0 -8 -7q0 -8 8 -8zM557 1044l27 11l-27 10l-25 -10zM630 1044q7 0 7 8q0 7 -7 7t-7 -7q0 -8 7 -8zM698 1028l27 2l-23 17l-28 -3zM760 1010q8 0 8 8t-8 8t-8 -8t8 -8z" />
    <glyph glyph-name="quotesingle" unicode="'" horiz-adv-x="387" 
d="M324 1432v-267l-103 -170h-149l65 170h-76v267h263z" />
    <glyph glyph-name="quotesingle" unicode="&#x2018;" horiz-adv-x="387" 
d="M324 1432v-267l-103 -170h-149l65 170h-76v267h263z" />
    <glyph glyph-name="parenleft" unicode="(" horiz-adv-x="1116" 
d="M819 293l-8 -10l66 -68q-63 -72 -152 -111l-113 119q99 21 164 96l8 11l-63 63l-10 -10q-62 -71 -148 -76v39h86v80h-86v27h88v71h-172v-159l-127 135v8q2 103 84 166l121 -127l49 51l246 -260q-15 -22 -33 -45zM557 1004q203 0 351 -148q147 -147 147 -354
q0 -208 -147 -355t-351 -147q-205 0 -350 147q-146 148 -146 355q0 206 146 354t350 148zM558 57q181 0 310 130q129 131 129 315t-129 314t-310 130t-311 -130t-130 -314q0 -185 130 -315t311 -130zM338 774l39 -39q-81 -67 -103 -151l-41 43q28 78 105 147zM256 1065
q-13 -8 -25 -2t-15 17q-3 12 5 20q-17 21 4 33q-4 5 -4 12q0 15 21 20q-13 8 -13 19q0 18 23 20q-6 8 -6 15q0 20 20 20l10 -2q-4 7 -4 12q0 21 21 21q5 0 12 -4v8q0 18 19 18q6 0 14 -6q4 21 20 21q11 0 19 -13q9 9 16 9h8q-2 8 -2 10q0 20 21 20q4 0 14 -6l-2 8
q0 21 21 21q7 0 14 -6q5 18 20 18q9 0 17 -8q6 14 18 14h8q7 7 21 12v21h-16v12h16v17h14v-17h17v-12h-17v-21q12 -5 19 -12h8q13 0 20 -14q8 8 17 8q13 0 18 -18q11 6 17 6q18 0 18 -21v-8q8 6 14 6q21 0 21 -20q0 -3 -4 -10h10q7 0 16 -9q8 13 19 13q14 0 20 -21q6 6 13 6
q20 0 20 -18v-8q5 4 12 4q21 0 21 -21q0 -5 -4 -12q8 2 10 2q18 0 18 -20q0 -8 -4 -15q21 -2 21 -20q0 -11 -11 -19q21 -5 21 -20q0 -7 -4 -12q19 -12 4 -33q17 -15 -4 -33q-17 -12 -31 -2q-16 -12 -41 -4l2 -6q2 -8 -2 -12t-10 -3q-121 58 -251 58t-251 -58q-7 -4 -12 7
q-2 5 2 14q-25 -8 -41 4zM311 1065q22 11 43 18v4q-8 1 -22 11q-6 -6 -13 -6q-1 -14 -10 -23zM428 1104v4q-22 5 -29 22h-4q2 -21 -12 -32l2 -4q15 4 43 10zM377 1163q-4 -14 10 -18q14 -1 17 11q3 14 -10 18q-12 4 -17 -11zM506 1116v4q-16 5 -23 19q-6 -2 -8 -2h-2
q-6 -16 -16 -23v-4q23 4 49 6zM580 1118l2 4q-18 8 -23 29h-4q-2 -21 -20 -29v-4h23h22zM543 1184q-4 -15 10 -19t17 11q3 14 -10 18t-17 -10zM657 1110l2 4q-11 7 -16 23h-4l-6 2q-10 -14 -23 -19v-4q25 -2 47 -6zM731 1094l2 4q-15 11 -14 32h-4q-6 -17 -27 -22v-4
q5 -1 19.5 -4.5t23.5 -5.5zM712 1165q-3 -14 10 -17t17 11q5 15 -10 18q-14 3 -17 -12zM805 1065l2 4q-9 9 -10 23h-2h-2l-6 3q-2 1 -5 1q-13 -9 -22 -9v-4q24 -7 45 -18zM884 1086q3 13 -11 18q-13 4 -17 -10q-5 -15 10 -18t18 10zM881 1145q0 8 -8 8q-7 0 -7 -8t7 -8
q8 0 8 8zM865 1192q-7 0 -7 -8t7 -8t7 8t-7 8zM850 1225q-8 0 -8 -7q0 -8 8 -8t8 8q0 7 -8 7zM842 1167q-28 17 -78 29q-4 -4 -12 -6q4 -7 2 -16q17 -8 12 -27q-6 -23 -33 -17q-1 -20 16 -27t27 9l1 2l1 2q4 21 24 16t15 -26q-1 -3 -6 -8q-2 -18 12 -25q10 -6 25 0
q-22 12 -14 33q4 12 14 16q-2 27 -6 45zM823 1255q-8 0 -8 -8t8 -8t8 8t-8 8zM791 1278q-9 0 -9 -8t9 -8q8 0 8 8t-8 8zM758 1288q-8 0 -8 -7t8 -7t8 7t-8 7zM760 1249q0 -9 -12 -20q20 -4 20 -21q47 -11 68 -26q-16 42 -72 69zM754 1210q0 9 -8 9q-7 0 -7 -9q0 -8 7 -8
q8 0 8 8zM739 1257q-8 0 -8 -8t8 -8q9 0 9 8t-9 8zM723 1290q-8 0 -8 -7t8 -7t8 7t-8 7zM696 1319q-8 0 -8 -7t8 -7q9 0 9 7t-9 7zM664 1341q-9 0 -9 -8t9 -8q8 0 8 8t-8 8zM629 1354q-8 0 -8 -7q0 -8 8 -8t8 8q0 7 -8 7zM593 1364q-7 0 -7 -8t7 -8t7 8t-7 8zM571 1290
q4 -4 4 -9q0 -6 -4 -11v-2q73 15 134 -19q-37 82 -132 76q2 -2 2 -4q0 -6 -4 -10v-21zM557 1329q-8 0 -8 -8t8 -8t8 8t-8 8zM557 1288q-8 0 -8 -7t8 -7t8 7t-8 7zM557 1247q-8 0 -8 -7t8 -7t8 7t-8 7zM525 1364q-7 0 -7 -8t7 -8t7 8t-7 8zM489 1354q-8 0 -8 -7q0 -8 8 -8
q9 0 9 8q0 7 -9 7zM455 1341q-9 0 -9 -8t9 -8q8 0 8 8t-8 8zM421 1319q-7 0 -7 -7t7 -7t7 7t-7 7zM541 1325q-92 6 -131 -76q63 34 135 19v2q-4 5 -4 11q0 5 4 9v21q-4 4 -4 10v2v2zM545 1255q-81 15 -142 -22q-4 -16 -6 -35q9 -2 13 -12q17 1 22 -17q6 -24 -20 -30
q8 -23 28 -17q19 5 19 25q-2 6 -2 10q0 21 19 21q20 0 20 -21v-6q4 -18 22 -18q21 0 25 22q-29 0 -29 25q0 18 18 22q5 17 25 21q23 -5 27 -21q16 -4 16 -22q0 -25 -27 -25q4 -22 25 -22q17 0 23 18v6q0 21 19 21t19 -21q0 -4 -2 -10q0 -20 17 -25q20 -4 31 17q-29 6 -23 30
q6 19 25 17q5 10 12 12q-1 18 -8 35q-61 37 -140 22v-6q4 -4 4 -8q0 -12 -18 -18q-16 6 -16 18q0 5 4 10v4zM395 1290q-8 0 -8 -7t8 -7t8 7t-8 7zM379 1257q-8 0 -8 -8t8 -8t8 8t-8 8zM379 1210q0 9 -8 9q-9 0 -9 -9q0 -8 9 -8q8 0 8 8zM359 1288q-7 0 -7 -7t7 -7q8 0 8 7
t-8 7zM328 1278q-9 0 -9 -8t9 -8q8 0 8 8t-8 8zM295 1255q-8 0 -8 -8t8 -8t8 8t-8 8zM352 1251q-56 -28 -73 -69q25 15 69 26q0 16 21 21q-13 11 -13 20q0 2 -4 2zM352 1196q-58 -17 -78 -29q-4 -21 -6 -45q11 -5 15 -16q7 -21 -17 -33q16 -6 27 0q12 7 10 25l-4 8
q-5 21 14 26t25 -16v-2v-2q12 -17 29 -9q15 7 14 27q-27 -6 -33 17q-5 19 12 27q0 8 5 16q-9 2 -13 6zM268 1225q-8 0 -8 -7q0 -8 8 -8t8 8q0 7 -8 7zM252 1192q-8 0 -8 -8t8 -8t8 8t-8 8zM244 1153q-8 0 -8 -8t8 -8t8 8t-8 8zM233 1096q-4 -14 11 -19q14 -4 17 10
q3 15 -9 19q-15 4 -19 -10zM764 330q-84 -98 -215 -99v-63h-55v72q-95 23 -155 99q-60 77 -60 175q2 129 118 219l-57 62q-139 -114 -145 -287q-2 -73 25 -132t61 -95l-41 -41q-97 115 -97 264q0 112 57 210q57 97 152 152l99 -104q51 22 106 22q55 -2 105 -22l4 4l96 100
q95 -55 152 -151t57 -211q0 -153 -94 -266l-46 45q84 105 84 225q0 85 -39 162q-41 80 -104 125l-59 -60q45 -37 73 -78l-45 -39q-23 41 -69 74l-115 -125l-121 125q-96 -67 -100 -184q0 -75 43 -128q45 -56 115 -79v209h143v-43h-88v-55h86v-50h-86v-69q46 -5 93 19
q50 25 79 61zM555 727q-23 2 -63 -8l65 -68l61 66q-36 10 -63 10zM813 1022v-4q0 -2 -2 -2l-23 -8l7 -19l-2 -4q7 -4 -2 -8q-110 50 -234 52q-120 1 -233 -52q-5 -2 -5 2q-1 4 5 6l-2 4l4 19l-17 10q-6 0 -6 4q123 57 255 57t255 -57zM354 1010q8 0 8 8t-8 8t-8 -8t8 -8z
M414 1028l24 16l-28 3l-23 -17zM484 1044q8 0 8 8q0 7 -8 7q-7 0 -7 -7q0 -8 7 -8zM557 1044l27 11l-27 10l-25 -10zM630 1044q7 0 7 8q0 7 -7 7t-7 -7q0 -8 7 -8zM698 1028l27 2l-23 17l-28 -3zM760 1010q8 0 8 8t-8 8t-8 -8t8 -8z" />
    <glyph glyph-name="parenright" unicode=")" horiz-adv-x="1116" 
d="M819 293l-8 -10l66 -68q-63 -72 -152 -111l-113 119q99 21 164 96l8 11l-63 63l-10 -10q-62 -71 -148 -76v39h86v80h-86v27h88v71h-172v-159l-127 135v8q2 103 84 166l121 -127l49 51l246 -260q-15 -22 -33 -45zM557 1004q203 0 351 -148q147 -147 147 -354
q0 -208 -147 -355t-351 -147q-205 0 -350 147q-146 148 -146 355q0 206 146 354t350 148zM558 57q181 0 310 130q129 131 129 315t-129 314t-310 130t-311 -130t-130 -314q0 -185 130 -315t311 -130zM256 1065q-13 -8 -25 -2t-15 17q-3 12 5 20q-17 21 4 33q-4 5 -4 12
q0 15 21 20q-13 8 -13 19q0 18 23 20q-6 8 -6 15q0 20 20 20l10 -2q-4 7 -4 12q0 21 21 21q5 0 12 -4v8q0 18 19 18q6 0 14 -6q4 21 20 21q11 0 19 -13q9 9 16 9h8q-2 8 -2 10q0 20 21 20q4 0 14 -6l-2 8q0 21 21 21q7 0 14 -6q5 18 20 18q9 0 17 -8q6 14 18 14h8q7 7 21 12
v21h-16v12h16v17h14v-17h17v-12h-17v-21q12 -5 19 -12h8q13 0 20 -14q8 8 17 8q13 0 18 -18q11 6 17 6q18 0 18 -21v-8q8 6 14 6q21 0 21 -20q0 -3 -4 -10h10q7 0 16 -9q8 13 19 13q14 0 20 -21q6 6 13 6q20 0 20 -18v-8q5 4 12 4q21 0 21 -21q0 -5 -4 -12q8 2 10 2
q18 0 18 -20q0 -8 -4 -15q21 -2 21 -20q0 -11 -11 -19q21 -5 21 -20q0 -7 -4 -12q19 -12 4 -33q17 -15 -4 -33q-17 -12 -31 -2q-16 -12 -41 -4l2 -6q2 -8 -2 -12t-10 -3q-121 58 -251 58t-251 -58q-7 -4 -12 7q-2 5 2 14q-25 -8 -41 4zM311 1065q22 11 43 18v4q-8 1 -22 11
q-6 -6 -13 -6q-1 -14 -10 -23zM428 1104v4q-22 5 -29 22h-4q2 -21 -12 -32l2 -4q15 4 43 10zM377 1163q-4 -14 10 -18q14 -1 17 11q3 14 -10 18q-12 4 -17 -11zM506 1116v4q-16 5 -23 19q-6 -2 -8 -2h-2q-6 -16 -16 -23v-4q23 4 49 6zM580 1118l2 4q-18 8 -23 29h-4
q-2 -21 -20 -29v-4h23h22zM543 1184q-4 -15 10 -19t17 11q3 14 -10 18t-17 -10zM657 1110l2 4q-11 7 -16 23h-4l-6 2q-10 -14 -23 -19v-4q25 -2 47 -6zM731 1094l2 4q-15 11 -14 32h-4q-6 -17 -27 -22v-4q5 -1 19.5 -4.5t23.5 -5.5zM712 1165q-3 -14 10 -17t17 11
q5 15 -10 18q-14 3 -17 -12zM805 1065l2 4q-9 9 -10 23h-2h-2l-6 3q-2 1 -5 1q-13 -9 -22 -9v-4q24 -7 45 -18zM884 1086q3 13 -11 18q-13 4 -17 -10q-5 -15 10 -18t18 10zM881 1145q0 8 -8 8q-7 0 -7 -8t7 -8q8 0 8 8zM865 1192q-7 0 -7 -8t7 -8t7 8t-7 8zM850 1225
q-8 0 -8 -7q0 -8 8 -8t8 8q0 7 -8 7zM842 1167q-28 17 -78 29q-4 -4 -12 -6q4 -7 2 -16q17 -8 12 -27q-6 -23 -33 -17q-1 -20 16 -27t27 9l1 2l1 2q4 21 24 16t15 -26q-1 -3 -6 -8q-2 -18 12 -25q10 -6 25 0q-22 12 -14 33q4 12 14 16q-2 27 -6 45zM823 1255q-8 0 -8 -8
t8 -8t8 8t-8 8zM791 1278q-9 0 -9 -8t9 -8q8 0 8 8t-8 8zM758 1288q-8 0 -8 -7t8 -7t8 7t-8 7zM760 1249q0 -9 -12 -20q20 -4 20 -21q47 -11 68 -26q-16 42 -72 69zM754 1210q0 9 -8 9q-7 0 -7 -9q0 -8 7 -8q8 0 8 8zM739 1257q-8 0 -8 -8t8 -8q9 0 9 8t-9 8zM723 1290
q-8 0 -8 -7t8 -7t8 7t-8 7zM696 1319q-8 0 -8 -7t8 -7q9 0 9 7t-9 7zM664 1341q-9 0 -9 -8t9 -8q8 0 8 8t-8 8zM629 1354q-8 0 -8 -7q0 -8 8 -8t8 8q0 7 -8 7zM593 1364q-7 0 -7 -8t7 -8t7 8t-7 8zM571 1290q4 -4 4 -9q0 -6 -4 -11v-2q73 15 134 -19q-37 82 -132 76
q2 -2 2 -4q0 -6 -4 -10v-21zM557 1329q-8 0 -8 -8t8 -8t8 8t-8 8zM557 1288q-8 0 -8 -7t8 -7t8 7t-8 7zM557 1247q-8 0 -8 -7t8 -7t8 7t-8 7zM525 1364q-7 0 -7 -8t7 -8t7 8t-7 8zM489 1354q-8 0 -8 -7q0 -8 8 -8q9 0 9 8q0 7 -9 7zM455 1341q-9 0 -9 -8t9 -8q8 0 8 8t-8 8z
M421 1319q-7 0 -7 -7t7 -7t7 7t-7 7zM541 1325q-92 6 -131 -76q63 34 135 19v2q-4 5 -4 11q0 5 4 9v21q-4 4 -4 10v2v2zM545 1255q-81 15 -142 -22q-4 -16 -6 -35q9 -2 13 -12q17 1 22 -17q6 -24 -20 -30q8 -23 28 -17q19 5 19 25q-2 6 -2 10q0 21 19 21q20 0 20 -21v-6
q4 -18 22 -18q21 0 25 22q-29 0 -29 25q0 18 18 22q5 17 25 21q23 -5 27 -21q16 -4 16 -22q0 -25 -27 -25q4 -22 25 -22q17 0 23 18v6q0 21 19 21t19 -21q0 -4 -2 -10q0 -20 17 -25q20 -4 31 17q-29 6 -23 30q6 19 25 17q5 10 12 12q-1 18 -8 35q-61 37 -140 22v-6
q4 -4 4 -8q0 -12 -18 -18q-16 6 -16 18q0 5 4 10v4zM395 1290q-8 0 -8 -7t8 -7t8 7t-8 7zM379 1257q-8 0 -8 -8t8 -8t8 8t-8 8zM379 1210q0 9 -8 9q-9 0 -9 -9q0 -8 9 -8q8 0 8 8zM359 1288q-7 0 -7 -7t7 -7q8 0 8 7t-8 7zM328 1278q-9 0 -9 -8t9 -8q8 0 8 8t-8 8zM295 1255
q-8 0 -8 -8t8 -8t8 8t-8 8zM352 1251q-56 -28 -73 -69q25 15 69 26q0 16 21 21q-13 11 -13 20q0 2 -4 2zM352 1196q-58 -17 -78 -29q-4 -21 -6 -45q11 -5 15 -16q7 -21 -17 -33q16 -6 27 0q12 7 10 25l-4 8q-5 21 14 26t25 -16v-2v-2q12 -17 29 -9q15 7 14 27q-27 -6 -33 17
q-5 19 12 27q0 8 5 16q-9 2 -13 6zM268 1225q-8 0 -8 -7q0 -8 8 -8t8 8q0 7 -8 7zM252 1192q-8 0 -8 -8t8 -8t8 8t-8 8zM244 1153q-8 0 -8 -8t8 -8t8 8t-8 8zM233 1096q-4 -14 11 -19q14 -4 17 10q3 15 -9 19q-15 4 -19 -10zM813 1022v-4q0 -2 -2 -2l-23 -8l7 -19l-2 -4
q7 -4 -2 -8q-110 50 -234 52q-120 1 -233 -52q-5 -2 -5 2q-1 4 5 6l-2 4l4 19l-17 10q-6 0 -6 4q123 57 255 57t255 -57zM354 1010q8 0 8 8t-8 8t-8 -8t8 -8zM414 1028l24 16l-28 3l-23 -17zM485 1044q12 0 7 11q-1 4 -7 4q-8 0 -8 -7q0 -8 8 -8zM557 1044l27 11l-27 10
l-25 -10zM630 1044q7 0 7 8q0 7 -7 7t-7 -7q0 -8 7 -8zM698 1028l27 2l-23 17l-28 -3zM760 1010q8 0 8 8t-8 8t-8 -8t8 -8zM338 774l39 -39q-81 -67 -103 -151l-41 43q28 78 105 147zM764 330q-84 -98 -215 -99v-63h-55v72q-95 23 -155 99q-60 77 -60 175q2 129 118 219
l-57 62q-139 -114 -145 -287q-2 -73 25 -132t61 -95l-41 -41q-97 115 -97 264q0 112 57 210q57 97 152 152l97 -104q54 22 108 22q55 -2 105 -22l4 4l96 100q95 -55 152 -151t57 -211q0 -153 -94 -266l-46 45q84 105 84 225q0 85 -39 162q-41 80 -104 125l-59 -60
q45 -37 73 -78l-45 -39q-23 41 -69 74l-115 -125l-121 125q-96 -67 -100 -184q0 -75 43 -128q45 -56 115 -79v209h143v-43h-88v-55h86v-50h-86v-69q46 -5 93 19q50 25 79 61zM555 727q-23 2 -63 -8l65 -68l61 66q-36 10 -63 10z" />
    <glyph glyph-name="asterisk" unicode="*" horiz-adv-x="1116" 
d="M819 293l-8 -10l66 -68q-63 -72 -152 -111l-113 119q99 21 164 96l8 11l-63 63l-10 -10q-62 -71 -148 -76v39h86v80h-86v27h88v71h-172v-159l-127 135v8q2 103 84 166l121 -127l49 51l246 -260q-15 -22 -33 -45zM557 1004q203 0 351 -148q147 -147 147 -354
q0 -208 -147 -355t-351 -147q-205 0 -350 147q-146 148 -146 355q0 206 146 354t350 148zM558 57q181 0 310 130q129 131 129 315t-129 314t-310 130t-311 -130t-130 -314q0 -185 130 -315t311 -130zM813 1022v-4q0 -2 -2 -2l-23 -8l7 -19l-2 -4q7 -4 -2 -8q-110 50 -234 52
q-120 1 -233 -52q-5 -2 -5 2q-1 4 5 6l-2 4l4 19l-17 10q-6 0 -6 4q123 57 255 57t255 -57zM354 1010q8 0 8 8t-8 8t-8 -8t8 -8zM414 1028l24 16l-28 3l-23 -17zM485 1044q12 0 7 11q-1 4 -7 4q-8 0 -8 -7q0 -8 8 -8zM557 1044l27 11l-27 10l-25 -10zM631 1044q11 0 6 11
q-1 4 -6 4q-8 0 -8 -7q0 -8 8 -8zM698 1028l27 2l-23 17l-28 -3zM760 1010q8 0 8 8t-8 8t-8 -8t8 -8zM256 1065q-13 -8 -25 -2t-15 17q-3 12 5 20q-17 21 4 33q-4 5 -4 12q0 15 21 20q-13 8 -13 19q0 18 23 20q-6 8 -6 15q0 20 20 20l10 -2q-4 7 -4 12q0 21 21 21q5 0 12 -4
v8q0 18 19 18q6 0 14 -6q4 21 20 21q11 0 19 -13q9 9 16 9h8q-2 8 -2 10q0 20 21 20q4 0 14 -6l-2 8q0 21 21 21q7 0 14 -6q5 18 20 18q9 0 17 -8q6 14 18 14h8q7 7 21 12v21h-16v12h16v17h14v-17h17v-12h-17v-21q12 -5 19 -12h8q13 0 20 -14q8 8 17 8q13 0 18 -18
q11 6 17 6q18 0 18 -21v-8q8 6 14 6q21 0 21 -20q0 -3 -4 -10h10q7 0 16 -9q8 13 19 13q14 0 20 -21q6 6 13 6q20 0 20 -18v-8q5 4 12 4q21 0 21 -21q0 -5 -4 -12q8 2 10 2q18 0 18 -20q0 -8 -4 -15q21 -2 21 -20q0 -11 -11 -19q21 -5 21 -20q0 -7 -4 -12q19 -12 4 -33
q17 -15 -4 -33q-17 -12 -31 -2q-16 -12 -41 -4l2 -6q2 -8 -2 -12t-10 -3q-121 58 -251 58t-251 -58q-7 -4 -12 7q-2 5 2 14q-25 -8 -41 4zM311 1065q22 11 43 18v4q-8 1 -22 11q-6 -6 -13 -6q-1 -14 -10 -23zM428 1104v4q-22 5 -29 22h-4q2 -21 -12 -32l2 -4q15 4 43 10z
M377 1163q-4 -14 10 -18q14 -1 17 11q3 14 -10 18q-12 4 -17 -11zM506 1116v4q-16 5 -23 19q-6 -2 -8 -2h-2q-6 -16 -16 -23v-4q23 4 49 6zM580 1118l2 4q-18 8 -23 29h-4q-2 -21 -20 -29v-4h23h22zM543 1184q-4 -15 10 -19t17 11q3 14 -10 18t-17 -10zM657 1110l2 4
q-11 7 -16 23h-4l-6 2q-10 -14 -23 -19v-4q25 -2 47 -6zM731 1094l2 4q-15 11 -14 32h-4q-6 -17 -27 -22v-4q5 -1 19.5 -4.5t23.5 -5.5zM712 1165q-3 -14 10 -17t17 11q5 15 -10 18q-14 3 -17 -12zM805 1065l2 4q-9 9 -10 23h-2h-2l-6 3q-2 1 -5 1q-13 -9 -22 -9v-4
q24 -7 45 -18zM884 1086q3 13 -11 18q-13 4 -17 -10q-5 -15 10 -18t18 10zM881 1145q0 8 -8 8q-7 0 -7 -8t7 -8q8 0 8 8zM865 1192q-7 0 -7 -8t7 -8t7 8t-7 8zM850 1225q-8 0 -8 -7q0 -8 8 -8t8 8q0 7 -8 7zM842 1167q-28 17 -78 29q-4 -4 -12 -6q4 -7 2 -16q17 -8 12 -27
q-6 -23 -33 -17q-1 -20 16 -27t27 9l1 2l1 2q4 21 24 16t15 -26q-1 -3 -6 -8q-2 -18 12 -25q10 -6 25 0q-22 12 -14 33q4 12 14 16q-2 27 -6 45zM823 1255q-8 0 -8 -8t8 -8t8 8t-8 8zM791 1278q-9 0 -9 -8t9 -8q8 0 8 8t-8 8zM758 1288q-8 0 -8 -7t8 -7t8 7t-8 7zM760 1249
q0 -9 -12 -20q20 -4 20 -21q47 -11 68 -26q-16 42 -72 69zM754 1210q0 9 -8 9q-7 0 -7 -9q0 -8 7 -8q8 0 8 8zM739 1257q-8 0 -8 -8t8 -8q9 0 9 8t-9 8zM723 1290q-8 0 -8 -7t8 -7t8 7t-8 7zM696 1319q-8 0 -8 -7t8 -7q9 0 9 7t-9 7zM664 1341q-9 0 -9 -8t9 -8q8 0 8 8t-8 8
zM629 1354q-8 0 -8 -7q0 -8 8 -8t8 8q0 7 -8 7zM593 1364q-7 0 -7 -8t7 -8t7 8t-7 8zM571 1290q4 -4 4 -9q0 -6 -4 -11v-2q73 15 134 -19q-37 82 -132 76q2 -2 2 -4q0 -6 -4 -10v-21zM557 1329q-8 0 -8 -8t8 -8t8 8t-8 8zM557 1288q-8 0 -8 -8t8 -8t8 8t-8 8zM557 1247
q-8 0 -8 -7t8 -7t8 7t-8 7zM525 1364q-7 0 -7 -8t7 -8t7 8t-7 8zM489 1354q-8 0 -8 -7q0 -8 8 -8q9 0 9 8q0 7 -9 7zM455 1341q-9 0 -9 -8t9 -8q8 0 8 8t-8 8zM421 1319q-7 0 -7 -7t7 -7t7 7t-7 7zM541 1325q-92 6 -131 -76q63 34 135 19v2q-4 5 -4 11q0 5 4 9v21
q-4 4 -4 10v2v2zM545 1255q-81 15 -142 -22q-4 -16 -6 -35q9 -2 13 -12q18 1 22 -19q6 -22 -20 -28q8 -23 28 -17q19 5 19 25q-2 6 -2 10q0 21 19 21q20 0 20 -21v-6q4 -18 22 -18q21 0 25 22q-29 0 -29 25q0 18 18 22q5 17 25 21q23 -5 27 -21q16 -4 16 -22q0 -25 -27 -25
q4 -22 25 -22q17 0 23 18v6q0 21 19 21t19 -21q0 -4 -2 -10q0 -20 17 -25q20 -4 31 17q-29 6 -23 28q6 21 25 19q5 10 12 12q-1 18 -8 35q-61 37 -140 22v-6q4 -4 4 -8q0 -12 -18 -18q-16 6 -16 18q0 5 4 10v4zM395 1290q-8 0 -8 -7t8 -7t8 7t-8 7zM379 1257q-8 0 -8 -8
t8 -8t8 8t-8 8zM379 1210q0 9 -8 9q-9 0 -9 -9q0 -8 9 -8q8 0 8 8zM359 1288q-7 0 -7 -7t7 -7q8 0 8 7t-8 7zM328 1278q-9 0 -9 -8t9 -8q8 0 8 8t-8 8zM295 1255q-8 0 -8 -8t8 -8t8 8t-8 8zM352 1251q-56 -28 -73 -69q25 15 69 26q0 16 21 21q-13 11 -13 20q0 2 -4 2z
M352 1196q-58 -17 -78 -29q-4 -21 -6 -45q11 -5 15 -16q7 -21 -17 -33q16 -6 27 0q12 7 10 25l-4 8q-5 21 14 26t25 -16v-2v-2q12 -17 29 -9q15 7 14 27q-27 -6 -33 17q-5 19 12 27q0 8 5 16q-9 2 -13 6zM268 1225q-8 0 -8 -7q0 -8 8 -8t8 8q0 7 -8 7zM252 1192q-8 0 -8 -8
t8 -8t8 8t-8 8zM244 1153q-8 0 -8 -8t8 -8t8 8t-8 8zM233 1096q-4 -14 11 -19q14 -4 17 10q3 15 -9 19q-15 4 -19 -10zM764 330q-84 -98 -215 -99v-63h-55v72q-95 23 -155 99q-60 77 -60 175q2 129 118 219l-57 62q-139 -114 -145 -287q-2 -73 25 -132t61 -95l-41 -41
q-97 115 -97 264q0 112 57 210q57 97 152 152l99 -104q51 22 106 22q55 -2 105 -22l4 4l96 100q95 -55 152 -151t57 -211q0 -153 -94 -266l-46 45q84 105 84 225q0 85 -39 162q-41 80 -104 125l-59 -60q45 -37 73 -78l-45 -39q-23 41 -69 74l-115 -125l-121 125
q-96 -67 -100 -184q0 -75 43 -128q45 -56 115 -79v209h143v-43h-88v-55h86v-50h-86v-69q48 -5 94 19q50 26 78 61zM555 727q-23 2 -63 -8l65 -68l62 66q-36 10 -64 10zM338 774l39 -39q-81 -67 -103 -151l-41 43q28 78 105 147z" />
    <glyph glyph-name="comma" unicode="," horiz-adv-x="387" 
d="M324 262v-266l-103 -170h-149l65 170h-76v266h263z" />
    <glyph glyph-name="hyphen" unicode="-" horiz-adv-x="638" 
d="M578 555h-517v266h517v-266z" />
    <glyph glyph-name="period" unicode="." horiz-adv-x="387" 
d="M324 0h-263v264h263v-264z" />
    <glyph glyph-name="slash" unicode="/" horiz-adv-x="675" 
d="M61 0l373 1436h180l-372 -1436h-181z" />
    <glyph glyph-name="zero" unicode="0" horiz-adv-x="868" 
d="M61 1307l127 127h492l127 -127v-1180l-127 -127h-492l-127 127v1180zM559 252v930h-250v-930h250zM672 1411h-475l-115 -115v-1159l115 -114h475l112 114v1159zM580 1204v-975h-291v975h291zM94 1292l107 109h467l106 -109v-1151l-106 -108h-467l-107 108v1151zM279 219
h311v995h-311v-995z" />
    <glyph glyph-name="one" unicode="1" horiz-adv-x="491" 
d="M61 1434h308v-1182h59v-252h-367v252h60v930h-60v252zM348 229v1182h-266v-207h59v-975h-59v-206h326v206h-60zM94 1401h242v-1182h61v-186h-303v186h60v995h-60v187z" />
    <glyph glyph-name="two" unicode="2" horiz-adv-x="868" 
d="M309 1182v-127h-248v252l127 127h492l127 -127v-457l-498 -502v-96h498v-252h-746v453l498 503v226h-250zM82 1077h207v127h291v-258l-498 -502v-421h702v206h-495v127l495 504v436l-112 115h-475l-115 -115v-219zM279 1214v-127h-185v205l107 109h467l106 -109v-428
l-495 -504v-141h495v-186h-680v407l496 502v272h-311z" />
    <glyph glyph-name="three" unicode="3" horiz-adv-x="870" 
d="M61 1307l127 127h494l125 -127v-465l-64 -125l64 -125v-465l-125 -127h-494l-127 127v238h248v-113h250v340h-303v250h303v340h-250v-115h-248v240zM672 1411h-475l-115 -115v-206h207v114h291v-383h-304v-209h304v-383h-291v115h-207v-207l115 -114h475l114 114v449
l-67 131l67 131v448zM94 1292l107 109h467l106 -109v-442l-67 -133l67 -133v-443l-106 -108h-467l-107 108v191h185v-113h313v406h-305v184h305v405h-313v-114h-185v192z" />
    <glyph glyph-name="four" unicode="4" horiz-adv-x="919" 
d="M485 1434h242v-721h131v-252h-131v-209h61v-252h-368v252h59v209h-418v231zM479 918l-119 -205h119v205zM707 690v721h-207l-418 -723v-205h420v-254h-62v-206h326v206h-59v254h129v207h-129zM324 690l178 309v-309h-178zM506 1401h190v-721h129v-186h-129v-275h60v-186
h-303v186h59v275h-418v190zM512 1038l-207 -358h207v358z" />
    <glyph glyph-name="five" unicode="5" horiz-adv-x="870" 
d="M61 379h250v-127h248v352h-371l-127 127v703h746v-252h-496v-328h371l125 -127v-600l-125 -127h-494l-127 127v252zM289 356h-207v-219l115 -114h475l114 114v582l-114 115h-383v370h497v207h-704v-672l115 -114h383v-396h-291v127zM279 346v-127h313v416h-391l-107 108
v658h680v-187h-495v-393h389l106 -108v-572l-106 -108h-467l-107 108v205h185z" />
    <glyph glyph-name="six" unicode="6" horiz-adv-x="870" 
d="M807 127l-125 -127h-494l-127 127v1180l127 127h494l125 -127v-248h-248v123h-250v-340h373l125 -127v-588zM559 592h-250v-340h250v340zM197 23h475l114 114v570l-114 114h-383v383h291v-125h206v217l-114 115h-475l-115 -115v-1159zM289 229v383h291v-383h-291z
M774 141l-106 -108h-467l-107 108v1151l107 109h467l106 -109v-200h-184v122h-311v-405h389l106 -107v-561zM590 625h-311v-406h311v406z" />
    <glyph glyph-name="seven" unicode="7" horiz-adv-x="905" 
d="M242 252l342 930h-275v-103h-248v355h783v-252l-342 -930h49v-252h-369v252h60zM256 229h-51v-206h323v206h-55l348 957v225h-739v-309h207v102h323zM215 33v186h49l365 995h-350v-102h-185v289h717v-213l-354 -969h61v-186h-303z" />
    <glyph glyph-name="eight" unicode="8" horiz-adv-x="868" 
d="M61 1307l127 127h492l127 -127v-465l-64 -125l64 -125v-465l-127 -127h-492l-127 127v465l64 125l-64 125v465zM309 842h250v340h-250v-340zM559 592h-250v-340h250v340zM672 1411h-475l-115 -115v-448l68 -131l-68 -131v-449l115 -114h475l112 114v449l-65 131l65 131
v448zM580 1204v-383h-291v383h291zM289 229v383h291v-383h-291zM94 1292l107 109h467l106 -109v-442l-67 -133l67 -133v-443l-106 -108h-467l-107 108v443l68 133l-68 133v442zM279 809h311v405h-311v-405zM590 625h-311v-406h311v406z" />
    <glyph glyph-name="nine" unicode="9" horiz-adv-x="870" 
d="M61 1307l127 127h494l125 -127v-1180l-125 -127h-494l-127 127v248h250v-123h248v340h-371l-127 127v588zM311 842h248v340h-248v-340zM672 1411h-475l-115 -115v-569l115 -115h383v-383h-291v125h-207v-217l115 -114h475l114 114v1159zM580 1204v-383h-291v383h291z
M94 1292l107 109h467l106 -109v-1151l-106 -108h-467l-107 108v201h185v-123h313v406h-391l-107 106v561zM279 809h313v405h-313v-405z" />
    <glyph glyph-name="at" unicode="@" horiz-adv-x="1116" 
d="M557 1004q203 0 351 -148q147 -147 147 -354q0 -208 -147 -355t-351 -147q-205 0 -350 147q-146 148 -146 355q0 206 146 354t350 148zM558 57q181 0 310 130q129 131 129 315t-129 314t-310 130t-311 -130t-130 -314q0 -185 130 -315t311 -130zM256 1065q-13 -8 -25 -2
t-15 17q-3 12 5 20q-17 21 4 33q-4 5 -4 12q0 15 21 20q-13 8 -13 19q0 18 23 20q-6 8 -6 15q0 20 20 20l10 -2q-4 7 -4 12q0 21 21 21q5 0 12 -4v8q0 18 19 18q6 0 14 -6q4 21 20 21q11 0 19 -13q9 9 16 9h8q-2 8 -2 10q0 20 21 20q4 0 14 -6l-2 8q0 21 21 21q7 0 14 -6
q5 18 20 18q9 0 17 -8q6 14 18 14h8q7 7 21 12v21h-16v12h16v17h14v-17h17v-12h-17v-21q12 -5 19 -12h8q13 0 20 -14q8 8 17 8q13 0 18 -18q11 6 17 6q18 0 18 -21v-8q8 6 14 6q21 0 21 -20q0 -3 -4 -10h10q7 0 16 -9q8 13 19 13q14 0 20 -21q6 6 13 6q20 0 20 -18v-8
q5 4 12 4q21 0 21 -21q0 -5 -4 -12q8 2 10 2q18 0 18 -20q0 -8 -4 -15q21 -2 21 -20q0 -11 -11 -19q21 -5 21 -20q0 -7 -4 -12q19 -12 4 -33q17 -15 -4 -33q-17 -12 -31 -2q-16 -12 -41 -4l2 -6q2 -8 -2 -12t-10 -3q-121 58 -251 58t-251 -58q-7 -4 -12 7q-2 5 2 14
q-25 -8 -41 4zM311 1065q22 11 43 18v4q-8 1 -22 11q-6 -6 -13 -6q-1 -14 -10 -23zM428 1104v4q-22 5 -29 22h-4q2 -21 -12 -32l2 -4q15 4 43 10zM377 1163q-4 -14 10 -18q14 -1 17 11q3 14 -10 18q-12 4 -17 -11zM506 1116v4q-16 5 -23 19q-6 -2 -8 -2h-2q-6 -16 -16 -23
v-4q23 4 49 6zM580 1118l2 4q-18 8 -23 29h-4q-2 -21 -20 -29v-4h23h22zM543 1184q-4 -15 10 -19t17 11q3 14 -10 18t-17 -10zM657 1110l2 4q-11 7 -16 23h-4l-6 2q-10 -14 -23 -19v-4q25 -2 47 -6zM731 1094l2 4q-16 11 -14 33h-4q-6 -19 -27 -23v-4q5 -1 19.5 -4.5
t23.5 -5.5zM712 1165q-3 -14 10 -17t17 11q5 15 -10 18q-14 3 -17 -12zM805 1065l2 4q-9 9 -10 23h-2h-2l-6 3q-2 1 -5 1q-13 -9 -22 -9v-4q24 -7 45 -18zM884 1086q3 13 -11 18q-13 4 -17 -10q-5 -15 10 -18t18 10zM881 1145q0 8 -8 8q-7 0 -7 -8t7 -8q8 0 8 8zM865 1192
q-7 0 -7 -8t7 -8t7 8t-7 8zM850 1225q-8 0 -8 -7q0 -8 8 -8t8 8q0 7 -8 7zM842 1167q-28 17 -78 29q-4 -4 -12 -6q4 -7 2 -16q17 -8 12 -27q-6 -22 -33 -16q-1 -21 16 -28t27 9l1 2l1 2q4 21 24 16t15 -26q-1 -3 -6 -8q-2 -18 12 -25q10 -6 25 0q-22 12 -14 33q4 12 14 16
q-2 27 -6 45zM823 1255q-8 0 -8 -8t8 -8t8 8t-8 8zM791 1278q-9 0 -9 -8t9 -8q8 0 8 8t-8 8zM758 1288q-8 0 -8 -7t8 -7t8 7t-8 7zM760 1249q0 -9 -12 -20q20 -4 20 -21q47 -11 68 -26q-16 42 -72 69zM754 1210q0 9 -8 9q-7 0 -7 -9q0 -8 7 -8q8 0 8 8zM739 1257q-8 0 -8 -8
t8 -8q9 0 9 8t-9 8zM723 1290q-8 0 -8 -7t8 -7t8 7t-8 7zM696 1319q-8 0 -8 -7t8 -7q9 0 9 7t-9 7zM664 1341q-9 0 -9 -8t9 -8q8 0 8 8t-8 8zM629 1354q-8 0 -8 -7q0 -8 8 -8t8 8q0 7 -8 7zM593 1364q-7 0 -7 -8t7 -8t7 8t-7 8zM571 1290q4 -4 4 -9q0 -6 -4 -11v-2
q73 15 134 -19q-37 82 -132 76q2 -2 2 -4q0 -6 -4 -10v-21zM557 1329q-8 0 -8 -8t8 -8t8 8t-8 8zM557 1288q-8 0 -8 -7t8 -7t8 7t-8 7zM557 1247q-8 0 -8 -7t8 -7t8 7t-8 7zM525 1364q-7 0 -7 -8t7 -8t7 8t-7 8zM489 1354q-8 0 -8 -7q0 -8 8 -8q9 0 9 8q0 7 -9 7zM455 1341
q-9 0 -9 -8t9 -8q8 0 8 8t-8 8zM421 1319q-7 0 -7 -7t7 -7t7 7t-7 7zM541 1325q-92 6 -131 -76q63 34 135 19v2q-4 5 -4 11q0 5 4 9v21q-4 4 -4 10v2v2zM545 1255q-81 15 -142 -22q-4 -16 -6 -35q9 -2 13 -12q17 1 22 -17q6 -24 -20 -30q8 -21 28 -17q19 5 19 25q-2 6 -2 10
q0 21 19 21q20 0 20 -21v-6q4 -18 22 -18q21 0 25 22q-29 0 -29 25q0 18 18 22q5 17 25 21q23 -5 27 -21q16 -4 16 -22q0 -25 -27 -25q4 -22 25 -22q17 0 23 18v6q0 21 19 21t19 -21q0 -4 -2 -10q0 -20 17 -25q20 -4 31 17q-29 6 -23 30q6 19 25 17q5 10 12 12q-1 18 -8 35
q-61 37 -140 22v-6q4 -4 4 -8q0 -12 -18 -18q-16 6 -16 18q0 5 4 10v4zM395 1290q-8 0 -8 -7t8 -7t8 7t-8 7zM379 1257q-8 0 -8 -8t8 -8t8 8t-8 8zM379 1210q0 9 -8 9q-9 0 -9 -9q0 -8 9 -8q8 0 8 8zM359 1288q-7 0 -7 -7t7 -7q8 0 8 7t-8 7zM328 1278q-9 0 -9 -8t9 -8
q8 0 8 8t-8 8zM295 1255q-8 0 -8 -8t8 -8t8 8t-8 8zM352 1251q-56 -28 -73 -69q25 15 69 26q0 16 21 21q-13 11 -13 20q0 2 -4 2zM352 1196q-58 -17 -78 -29q-4 -21 -6 -45q11 -5 15 -16q7 -21 -17 -33q16 -6 27 0q12 7 10 25l-4 8q-5 21 14 26t25 -16v-2v-2q12 -17 29 -9
q15 7 14 28q-27 -6 -33 16q-5 19 12 27q0 8 5 16q-9 2 -13 6zM268 1225q-8 0 -8 -7q0 -8 8 -8t8 8q0 7 -8 7zM252 1192q-8 0 -8 -8t8 -8t8 8t-8 8zM244 1153q-8 0 -8 -8t8 -8t8 8t-8 8zM233 1096q-4 -14 11 -19q14 -4 17 10q3 15 -9 19q-15 4 -19 -10zM813 1022v-4
q0 -2 -2 -2l-23 -8l7 -19l-2 -4q7 -4 -2 -8q-110 50 -234 52q-120 1 -233 -52q-5 -2 -5 2q-1 4 5 6l-2 4l4 19l-17 10q-6 0 -6 4q123 57 255 57t255 -57zM354 1010q8 0 8 8t-8 8t-8 -8t8 -8zM414 1028l24 16l-28 3l-23 -17zM485 1044q12 0 7 11q-1 4 -7 4q-8 0 -8 -7
q0 -8 8 -8zM557 1044l27 11l-27 10l-25 -10zM630 1044q7 0 7 8q0 7 -7 7t-7 -7q0 -8 7 -8zM698 1028l27 2l-23 17l-28 -3zM760 1010q8 0 8 8t-8 8t-8 -8t8 -8zM764 330q-84 -98 -215 -99v-63h-55v72q-95 23 -155 99q-60 77 -60 175q2 129 118 219l-57 62
q-139 -114 -145 -287q-2 -73 25 -132t61 -95l-41 -41q-97 115 -97 264q0 112 57 210q57 97 152 152l99 -104q51 22 106 22q55 -2 105 -22l4 4l96 100q95 -55 152 -151t57 -211q0 -153 -94 -266l-46 45q84 105 84 225q0 85 -39 162q-41 80 -104 125l-59 -60q45 -37 73 -78
l-45 -39q-23 41 -69 74l-115 -125l-121 125q-96 -67 -100 -184q0 -75 43 -128q45 -56 115 -79v209h143v-43h-88v-55h86v-50h-86v-69q48 -5 94 19q50 26 78 61zM555 727q-23 2 -63 -8l65 -68l62 66q-36 10 -64 10zM338 774l39 -39q-81 -67 -103 -151l-41 43q28 78 105 147z
M819 293l-8 -10l66 -68q-63 -72 -152 -111l-113 119q99 21 164 96l8 11l-63 63l-10 -10q-62 -71 -148 -76v39h86v80h-86v27h88v71h-172v-159l-127 135v8q2 103 84 166l121 -127l49 51l246 -260q-15 -22 -33 -45z" />
    <glyph glyph-name="A" unicode="A" horiz-adv-x="1134" 
d="M336 1436h461v-267h-29l213 -905h92v-264h-385v264h25l-25 105h-242l-24 -105h24v-264h-385v264h93l213 905h-31v267zM510 635h115l-58 246z" />
    <glyph glyph-name="A" unicode="&#xc5;" horiz-adv-x="1134" 
d="M336 1436h461v-267h-29l213 -905h92v-264h-385v264h25l-25 105h-242l-24 -105h24v-264h-385v264h93l213 905h-31v267zM510 635h115l-58 246z" />
    <glyph glyph-name="A" unicode="&#xc4;" horiz-adv-x="1134" 
d="M336 1436h461v-267h-29l213 -905h92v-264h-385v264h25l-25 105h-242l-24 -105h24v-264h-385v264h93l213 905h-31v267zM510 635h115l-58 246z" />
    <glyph glyph-name="A" unicode="&#xc3;" horiz-adv-x="1134" 
d="M336 1436h461v-267h-29l213 -905h92v-264h-385v264h25l-25 105h-242l-24 -105h24v-264h-385v264h93l213 905h-31v267zM510 635h115l-58 246z" />
    <glyph glyph-name="A" unicode="&#xc2;" horiz-adv-x="1134" 
d="M336 1436h461v-267h-29l213 -905h92v-264h-385v264h25l-25 105h-242l-24 -105h24v-264h-385v264h93l213 905h-31v267zM510 635h115l-58 246z" />
    <glyph glyph-name="A" unicode="&#xc0;" horiz-adv-x="1134" 
d="M336 1436h461v-267h-29l213 -905h92v-264h-385v264h25l-25 105h-242l-24 -105h24v-264h-385v264h93l213 905h-31v267zM510 635h115l-58 246z" />
    <glyph glyph-name="B" unicode="B" 
d="M893 1339v-532l-88 -90l88 -90v-531l-94 -96h-738v264h62v905h-62v267h738zM385 268h246v312h-246v-312zM385 856h246v309h-246v-309z" />
    <glyph glyph-name="C" unicode="C" horiz-adv-x="894" 
d="M61 1339l95 97h581l94 -97v-329h-262v155h-245v-897h245v156h262v-328l-94 -96h-581l-95 96v1243z" />
    <glyph glyph-name="C" unicode="&#xc7;" horiz-adv-x="894" 
d="M61 1339l95 97h581l94 -97v-329h-262v155h-245v-897h245v156h262v-328l-94 -96h-581l-95 96v1243z" />
    <glyph glyph-name="D" unicode="D" 
d="M61 1436h738l94 -97v-1243l-94 -96h-738v264h62v905h-62v267zM631 1165h-246v-897h246v897z" />
    <glyph glyph-name="E" unicode="E" 
d="M61 1436h834v-338h-266v71h-244v-321h326v-264h-326v-320h244v74h266v-338h-834v264h62v905h-62v267z" />
    <glyph glyph-name="E" unicode="&#xca;" 
d="M61 1436h834v-338h-266v71h-244v-321h326v-264h-326v-320h244v74h266v-338h-834v264h62v905h-62v267z" />
    <glyph glyph-name="E" unicode="&#xc8;" 
d="M61 1436h834v-338h-266v71h-244v-321h326v-264h-326v-320h244v74h266v-338h-834v264h62v905h-62v267z" />
    <glyph glyph-name="F" unicode="F" 
d="M61 1436h834v-338h-266v71h-244v-321h326v-264h-326v-320h61v-264h-385v264h62v905h-62v267z" />
    <glyph glyph-name="G" unicode="G" horiz-adv-x="894" 
d="M61 1339l95 97h675v-340h-262v69h-245v-897h245v316h-123v266h385v-377v-377l-94 -96h-581l-95 96v1243z" />
    <glyph glyph-name="H" unicode="H" horiz-adv-x="1011" 
d="M61 1436h385v-267h-61v-319h242v319h-62v267h385v-267h-61v-905h61v-264h-385v264h62v320h-242v-320h61v-264h-385v264h62v905h-62v267z" />
    <glyph glyph-name="I" unicode="I" horiz-adv-x="509" 
d="M61 1436h385v-267h-61v-905h61v-264h-385v264h62v905h-62v267z" />
    <glyph glyph-name="I" unicode="&#xcf;" horiz-adv-x="509" 
d="M61 1436h385v-267h-61v-905h61v-264h-385v264h62v905h-62v267z" />
    <glyph glyph-name="I" unicode="&#xce;" horiz-adv-x="509" 
d="M61 1436h385v-267h-61v-905h61v-264h-385v264h62v905h-62v267z" />
    <glyph glyph-name="I" unicode="&#xcc;" horiz-adv-x="509" 
d="M61 1436h385v-267h-61v-905h61v-264h-385v264h62v905h-62v267z" />
    <glyph glyph-name="J" unicode="J" 
d="M831 96l-94 -96h-581l-95 96v328h263v-156h245v901h-61v267h385v-267h-62v-1073z" />
    <glyph glyph-name="K" unicode="K" horiz-adv-x="1216" 
d="M61 1436h385v-267h-61v-350l250 350h-23v267h385v-267h-30l-230 -321l387 -584h29v-264h-385v264h25l-226 342l-182 -256v-86h61v-264h-385v264h62v905h-62v267z" />
    <glyph glyph-name="L" unicode="L" 
d="M895 338v-338h-834v264h62v905h-62v267h385v-267h-61v-905h244v74h266z" />
    <glyph glyph-name="M" unicode="M" horiz-adv-x="1257" 
d="M61 1436h324l244 -478l241 478h326v-267h-61v-905h61v-264h-385v264h59v656l-176 -351h-131l-178 351v-656h61v-264h-385v264h62v905h-62v267z" />
    <glyph glyph-name="N" unicode="N" horiz-adv-x="1116" 
d="M61 1436h324l346 -818v551h-63v267h387v-267h-62v-905h62v-264h-324l-346 817v-553h61v-264h-385v264h62v905h-62v267z" />
    <glyph glyph-name="N" unicode="&#xd1;" horiz-adv-x="1116" 
d="M61 1436h324l346 -818v551h-63v267h387v-267h-62v-905h62v-264h-324l-346 817v-553h61v-264h-385v264h62v905h-62v267z" />
    <glyph glyph-name="O" unicode="O" horiz-adv-x="894" 
d="M61 1339l95 97h581l94 -97v-1243l-94 -96h-581l-95 96v1243zM569 1165h-245v-897h245v897z" />
    <glyph glyph-name="O" unicode="&#xd8;" horiz-adv-x="894" 
d="M61 1339l95 97h581l94 -97v-1243l-94 -96h-581l-95 96v1243zM569 1165h-245v-897h245v897z" />
    <glyph glyph-name="O" unicode="&#xd6;" horiz-adv-x="894" 
d="M61 1339l95 97h581l94 -97v-1243l-94 -96h-581l-95 96v1243zM569 1165h-245v-897h245v897z" />
    <glyph glyph-name="O" unicode="&#xd5;" horiz-adv-x="894" 
d="M61 1339l95 97h581l94 -97v-1243l-94 -96h-581l-95 96v1243zM569 1165h-245v-897h245v897z" />
    <glyph glyph-name="O" unicode="&#xd4;" horiz-adv-x="894" 
d="M61 1339l95 97h581l94 -97v-1243l-94 -96h-581l-95 96v1243zM569 1165h-245v-897h245v897z" />
    <glyph glyph-name="O" unicode="&#xd2;" horiz-adv-x="894" 
d="M61 1339l95 97h581l94 -97v-1243l-94 -96h-581l-95 96v1243zM569 1165h-245v-897h245v897z" />
    <glyph glyph-name="P" unicode="P" horiz-adv-x="954" 
d="M61 1436h738l94 -97v-665l-94 -94h-414v-316h61v-264h-385v264h62v905h-62v267zM631 1165h-246v-313h246v313z" />
    <glyph glyph-name="Q" unicode="Q" horiz-adv-x="894" 
d="M61 1339l95 97h581l94 -97v-1243l-94 -96h-53l90 -143h-239l-91 143h-288l-95 96v1243zM569 1165h-245v-897h245v897z" />
    <glyph glyph-name="R" unicode="R" horiz-adv-x="1017" 
d="M61 1436h738l94 -97v-532l-94 -96l94 -95v-352h61v-264h-385v264h62v316h-246v-316h61v-264h-385v264h62v905h-62v267zM631 1165h-246v-313h246v313z" />
    <glyph glyph-name="S" unicode="S" horiz-adv-x="894" 
d="M324 1165v-311h413l94 -96v-662l-94 -96h-581l-95 96v328h263v-156h245v316h-413l-95 94v661l95 97h581l94 -97v-327h-262v153h-245z" />
    <glyph glyph-name="T" unicode="T" horiz-adv-x="1124" 
d="M61 1436h1000v-338h-266v71h-99v-905h62v-264h-393v264h61v905h-98v-71h-267v338z" />
    <glyph glyph-name="U" unicode="U" horiz-adv-x="1017" 
d="M893 96l-94 -96h-582l-94 96v1073h-62v267h385v-267h-61v-901h246v901h-62v267h385v-267h-61v-1073z" />
    <glyph glyph-name="U" unicode="&#xdc;" horiz-adv-x="1017" 
d="M893 96l-94 -96h-582l-94 96v1073h-62v267h385v-267h-61v-901h246v901h-62v267h385v-267h-61v-1073z" />
    <glyph glyph-name="U" unicode="&#xdb;" horiz-adv-x="1017" 
d="M893 96l-94 -96h-582l-94 96v1073h-62v267h385v-267h-61v-901h246v901h-62v267h385v-267h-61v-1073z" />
    <glyph glyph-name="U" unicode="&#xd9;" horiz-adv-x="1017" 
d="M893 96l-94 -96h-582l-94 96v1073h-62v267h385v-267h-61v-901h246v901h-62v267h385v-267h-61v-1073z" />
    <glyph glyph-name="V" unicode="V" horiz-adv-x="1134" 
d="M567 555l144 614h-23v267h385v-267h-94l-213 -905h33v-264h-461v264h27l-213 905h-91v267h385v-267h-24z" />
    <glyph glyph-name="W" unicode="W" horiz-adv-x="1699" 
d="M567 555l144 614h-86v267h448v-267h-88l145 -614l146 614h-25v267h385v-267h-92l-213 -905h33v-264h-463v264h29l-82 346l-82 -346h33v-264h-461v264h27l-213 905h-91v267h385v-267h-24z" />
    <glyph glyph-name="X" unicode="X" horiz-adv-x="1134" 
d="M154 264l233 453l-235 452h-91v267h385v-267h-24l145 -278l144 278h-23v267h385v-267h-92l-236 -450l236 -455h92v-264h-385v264h25l-146 281l-145 -281h24v-264h-385v264h93z" />
    <glyph glyph-name="Y" unicode="Y" horiz-adv-x="1134" 
d="M979 1169l-281 -540v-95v-37v-61v-172h62v-264h-385v264h59v363l-282 542h-91v267h385v-267h-24l145 -278l144 278h-23v267h385v-267h-94z" />
    <glyph glyph-name="Y" unicode="&#xdd;" horiz-adv-x="1134" 
d="M979 1169l-281 -540v-95v-37v-61v-172h62v-264h-385v264h59v363l-282 542h-91v267h385v-267h-24l145 -278l144 278h-23v267h385v-267h-94z" />
    <glyph glyph-name="Z" unicode="Z" horiz-adv-x="958" 
d="M895 0h-834l449 1169h-180v-147h-267v414h832l-449 -1172h183v150h266v-414z" />
    <glyph glyph-name="asciicircum" unicode="^" horiz-adv-x="1116" 
d="M557 1004q203 0 351 -148q147 -147 147 -354q0 -208 -147 -355t-351 -147q-205 0 -350 147q-146 148 -146 355q0 206 146 354t350 148zM558 57q181 0 310 130q129 131 129 315t-129 314t-310 130t-311 -130t-130 -314q0 -185 130 -315t311 -130zM819 293l-8 -10l66 -68
q-63 -72 -152 -111l-113 119q99 21 164 96l8 11l-63 63l-10 -10q-62 -71 -148 -76v39h86v80h-86v27h88v71h-172v-159l-127 135v8q2 103 84 166l121 -127l49 51l246 -260q-15 -22 -33 -45zM338 774l39 -39q-81 -67 -103 -151l-41 43q28 78 105 147zM256 1065q-13 -8 -25 -2
t-15 17q-3 12 5 20q-17 21 4 33q-4 5 -4 12q0 15 21 20q-13 8 -13 19q0 18 23 20q-6 8 -6 15q0 20 20 20l10 -2q-4 7 -4 12q0 21 21 21q5 0 12 -4v8q0 18 19 18q6 0 14 -6q4 21 20 21q11 0 19 -13q9 9 16 9h8q-2 8 -2 10q0 20 21 20q4 0 14 -6l-2 8q0 21 21 21q7 0 14 -6
q5 18 20 18q9 0 17 -8q6 14 18 14h8q7 7 21 12v21h-16v12h16v17h14v-17h17v-12h-17v-21q12 -5 19 -12h8q13 0 20 -14q8 8 17 8q13 0 18 -18q11 6 17 6q18 0 18 -21v-8q8 6 14 6q21 0 21 -20q0 -3 -4 -10h10q7 0 16 -9q8 13 19 13q14 0 20 -21q6 6 13 6q20 0 20 -18v-8
q5 4 12 4q21 0 21 -21q0 -5 -4 -12q8 2 10 2q18 0 18 -20q0 -8 -4 -15q21 -2 21 -20q0 -11 -11 -19q21 -5 21 -20q0 -7 -4 -12q19 -12 4 -33q17 -15 -4 -33q-17 -12 -31 -2q-16 -12 -41 -4l2 -6q2 -8 -2 -12t-10 -3q-121 58 -251 58t-251 -58q-7 -4 -12 7q-2 5 2 14
q-25 -8 -41 4zM311 1065q22 11 43 18v4q-8 1 -22 11q-6 -6 -13 -6q-1 -14 -10 -23zM428 1104v4q-22 5 -29 22h-4q2 -21 -12 -32l2 -4q15 4 43 10zM377 1163q-4 -14 10 -18q14 -1 17 11q3 14 -10 18q-12 4 -17 -11zM506 1116v4q-16 5 -23 19q-6 -2 -8 -2h-2q-6 -16 -16 -23
v-4q23 4 49 6zM580 1118l2 4q-18 8 -23 29h-4q-2 -21 -20 -29v-4h23h22zM543 1184q-4 -15 10 -19t17 11q3 14 -10 18t-17 -10zM657 1110l2 4q-11 7 -16 23h-4l-6 2q-10 -14 -23 -19v-4q25 -2 47 -6zM731 1094l2 4q-15 11 -14 32h-4q-6 -17 -27 -22v-4q5 -1 19.5 -4.5
t23.5 -5.5zM712 1165q-3 -14 10 -17t17 11q5 15 -10 18q-14 3 -17 -12zM805 1065l2 4q-9 9 -10 23h-2h-2l-6 3q-2 1 -5 1q-13 -9 -22 -9v-4q24 -7 45 -18zM884 1086q3 13 -11 18q-13 4 -17 -10q-5 -15 10 -18t18 10zM881 1145q0 8 -8 8q-7 0 -7 -8t7 -8q8 0 8 8zM865 1192
q-7 0 -7 -8t7 -8t7 8t-7 8zM850 1225q-8 0 -8 -7q0 -8 8 -8t8 8q0 7 -8 7zM842 1167q-28 17 -78 29q-4 -4 -12 -6q4 -7 2 -16q17 -8 12 -27q-6 -23 -33 -17q-1 -20 16 -27t27 9l1 2l1 2q4 21 24 16t15 -26q-1 -3 -6 -8q-2 -18 12 -25q10 -6 25 0q-22 12 -14 33q4 12 14 16
q-2 27 -6 45zM823 1255q-8 0 -8 -8t8 -8t8 8t-8 8zM791 1278q-9 0 -9 -8t9 -8q8 0 8 8t-8 8zM758 1288q-8 0 -8 -7t8 -7t8 7t-8 7zM760 1249q0 -9 -12 -20q20 -4 20 -21q47 -11 68 -26q-16 42 -72 69zM754 1210q0 9 -8 9q-7 0 -7 -9q0 -8 7 -8q8 0 8 8zM739 1257q-8 0 -8 -8
t8 -8q9 0 9 8t-9 8zM723 1290q-8 0 -8 -7t8 -7t8 7t-8 7zM696 1319q-8 0 -8 -7t8 -7q9 0 9 7t-9 7zM664 1341q-9 0 -9 -8t9 -8q8 0 8 8t-8 8zM629 1354q-8 0 -8 -7q0 -8 8 -8t8 8q0 7 -8 7zM593 1364q-7 0 -7 -8t7 -8t7 8t-7 8zM571 1290q4 -4 4 -9q0 -6 -4 -11v-2
q73 15 134 -19q-37 82 -132 76q2 -2 2 -4q0 -6 -4 -10v-21zM557 1329q-8 0 -8 -8t8 -8t8 8t-8 8zM557 1288q-8 0 -8 -7t8 -7t8 7t-8 7zM557 1247q-8 0 -8 -7t8 -7t8 7t-8 7zM525 1364q-7 0 -7 -8t7 -8t7 8t-7 8zM489 1354q-8 0 -8 -7q0 -8 8 -8q9 0 9 8q0 7 -9 7zM455 1341
q-9 0 -9 -8t9 -8q8 0 8 8t-8 8zM421 1319q-7 0 -7 -7t7 -7t7 7t-7 7zM541 1325q-92 6 -131 -76q63 34 135 19v2q-4 5 -4 11q0 5 4 9v21q-4 4 -4 10v2v2zM545 1255q-81 15 -142 -22q-4 -16 -6 -35q9 -2 13 -12q17 1 22 -17q6 -24 -20 -30q8 -21 28 -17q19 5 19 25q-2 6 -2 10
q0 21 19 21q20 0 20 -21v-6q4 -18 22 -18q21 0 25 22q-29 0 -29 25q0 18 18 22q5 17 25 21q23 -5 27 -21q16 -4 16 -22q0 -25 -27 -25q4 -22 25 -22q17 0 23 18v6q0 21 19 21t19 -21q0 -4 -2 -10q0 -20 17 -25q20 -4 31 17q-29 6 -23 30q6 19 25 17q5 10 12 12q-1 18 -8 35
q-61 37 -140 22v-6q4 -4 4 -8q0 -12 -18 -18q-16 6 -16 18q0 5 4 10v4zM395 1290q-8 0 -8 -7t8 -7t8 7t-8 7zM379 1257q-8 0 -8 -8t8 -8t8 8t-8 8zM379 1210q0 9 -8 9q-9 0 -9 -9q0 -8 9 -8q8 0 8 8zM359 1288q-7 0 -7 -7t7 -7q8 0 8 7t-8 7zM328 1278q-9 0 -9 -8t9 -8
q8 0 8 8t-8 8zM295 1255q-8 0 -8 -8t8 -8t8 8t-8 8zM352 1251q-56 -28 -73 -69q25 15 69 26q0 16 21 21q-13 11 -13 20q0 2 -4 2zM352 1196q-58 -17 -78 -29q-4 -21 -6 -45q11 -5 15 -16q7 -21 -17 -33q16 -6 27 0q12 7 10 25l-4 8q-5 21 14 26t25 -16v-2v-2q12 -17 29 -9
q15 7 14 27q-27 -6 -33 17q-5 19 12 27q0 8 5 16q-9 2 -13 6zM268 1225q-8 0 -8 -7q0 -8 8 -8t8 8q0 7 -8 7zM252 1192q-8 0 -8 -8t8 -8t8 8t-8 8zM244 1153q-8 0 -8 -8t8 -8t8 8t-8 8zM233 1096q-4 -14 11 -19q14 -4 17 10q3 15 -9 19q-15 4 -19 -10zM813 1022v-4
q0 -2 -2 -2l-23 -8l7 -19l-2 -4q7 -4 -2 -8q-110 50 -234 52q-120 1 -233 -52q-5 -2 -5 2q-1 4 5 6l-2 4l4 19l-17 10q-6 0 -6 4q123 57 255 57t255 -57zM354 1010q8 0 8 8t-8 8t-8 -8t8 -8zM414 1028l24 16l-28 3l-23 -17zM485 1044q12 0 7 11q-1 4 -7 4q-8 0 -8 -7
q0 -8 8 -8zM557 1044l27 11l-27 10l-25 -10zM630 1044q7 0 7 8q0 7 -7 7t-7 -7q0 -8 7 -8zM698 1028l27 2l-23 17l-28 -3zM760 1010q8 0 8 8t-8 8t-8 -8t8 -8zM764 330q-84 -98 -215 -99v-63h-55v72q-95 23 -155 99q-60 77 -60 175q2 129 118 219l-57 62
q-139 -114 -145 -287q-2 -73 25 -132t61 -95l-41 -41q-97 115 -97 264q0 112 57 210q57 97 152 152l99 -104q51 22 106 22q55 -2 105 -22l4 4l96 100q95 -55 152 -151t57 -211q0 -153 -94 -266l-46 45q84 105 84 225q0 85 -39 162q-41 80 -104 125l-59 -60q45 -37 73 -78
l-45 -39q-23 41 -69 74l-115 -125l-121 125q-96 -67 -100 -184q0 -75 43 -128q45 -56 115 -79v209h143v-43h-88v-55h86v-50h-86v-69q48 -5 94 19q50 26 78 61zM555 727q-23 2 -63 -8l65 -68l62 66q-36 10 -64 10z" />
    <glyph glyph-name="a" unicode="a" horiz-adv-x="1134" 
d="M981 264h92v-264h-385v264h25l-25 105h-242l-24 -105h24v-264h-385v264h93l213 905h-31v267h461v-267h-29zM510 635h115l-58 246z" />
    <glyph glyph-name="a" unicode="&#xe5;" horiz-adv-x="1134" 
d="M981 264h92v-264h-385v264h25l-25 105h-242l-24 -105h24v-264h-385v264h93l213 905h-31v267h461v-267h-29zM510 635h115l-58 246z" />
    <glyph glyph-name="a" unicode="&#xe4;" horiz-adv-x="1134" 
d="M981 264h92v-264h-385v264h25l-25 105h-242l-24 -105h24v-264h-385v264h93l213 905h-31v267h461v-267h-29zM510 635h115l-58 246z" />
    <glyph glyph-name="a" unicode="&#xe3;" horiz-adv-x="1134" 
d="M981 264h92v-264h-385v264h25l-25 105h-242l-24 -105h24v-264h-385v264h93l213 905h-31v267h461v-267h-29zM510 635h115l-58 246z" />
    <glyph glyph-name="a" unicode="&#xe2;" horiz-adv-x="1134" 
d="M981 264h92v-264h-385v264h25l-25 105h-242l-24 -105h24v-264h-385v264h93l213 905h-31v267h461v-267h-29zM510 635h115l-58 246z" />
    <glyph glyph-name="a" unicode="&#xe0;" horiz-adv-x="1134" 
d="M981 264h92v-264h-385v264h25l-25 105h-242l-24 -105h24v-264h-385v264h93l213 905h-31v267h461v-267h-29zM510 635h115l-58 246z" />
    <glyph glyph-name="b" unicode="b" 
d="M893 1339v-532l-88 -90l88 -90v-531l-94 -96h-738v264h62v905h-62v267h738zM631 268v312h-246v-312h246zM631 856v309h-246v-309h246z" />
    <glyph glyph-name="c" unicode="c" horiz-adv-x="894" 
d="M831 1010h-262v155h-245v-897h245v156h262v-328l-94 -96h-581l-95 96v1243l95 97h581l94 -97v-329z" />
    <glyph glyph-name="c" unicode="&#xe7;" horiz-adv-x="894" 
d="M831 1010h-262v155h-245v-897h245v156h262v-328l-94 -96h-581l-95 96v1243l95 97h581l94 -97v-329z" />
    <glyph glyph-name="d" unicode="d" 
d="M799 1436l94 -97v-1243l-94 -96h-738v264h62v905h-62v267h738zM631 268v897h-246v-897h246z" />
    <glyph glyph-name="e" unicode="e" 
d="M895 1098h-266v71h-244v-321h326v-264h-326v-320h244v74h266v-338h-834v264h62v905h-62v267h834v-338z" />
    <glyph glyph-name="e" unicode="&#xea;" 
d="M895 1098h-266v71h-244v-321h326v-264h-326v-320h244v74h266v-338h-834v264h62v905h-62v267h834v-338z" />
    <glyph glyph-name="e" unicode="&#xe8;" 
d="M895 1098h-266v71h-244v-321h326v-264h-326v-320h244v74h266v-338h-834v264h62v905h-62v267h834v-338z" />
    <glyph glyph-name="f" unicode="f" 
d="M895 1098h-266v71h-244v-321h326v-264h-326v-320h61v-264h-385v264h62v905h-62v267h834v-338z" />
    <glyph glyph-name="g" unicode="g" horiz-adv-x="894" 
d="M831 1096h-262v69h-245v-897h245v316h-123v266h385v-377v-377l-94 -96h-581l-95 96v1243l95 97h675v-340z" />
    <glyph glyph-name="h" unicode="h" horiz-adv-x="1011" 
d="M950 1169h-61v-905h61v-264h-385v264h62v320h-242v-320h61v-264h-385v264h62v905h-62v267h385v-267h-61v-319h242v319h-62v267h385v-267z" />
    <glyph glyph-name="i" unicode="i" horiz-adv-x="509" 
d="M446 1169h-61v-905h61v-264h-385v264h62v905h-62v267h385v-267z" />
    <glyph glyph-name="i" unicode="&#xef;" horiz-adv-x="509" 
d="M446 1169h-61v-905h61v-264h-385v264h62v905h-62v267h385v-267z" />
    <glyph glyph-name="i" unicode="&#xee;" horiz-adv-x="509" 
d="M446 1169h-61v-905h61v-264h-385v264h62v905h-62v267h385v-267z" />
    <glyph glyph-name="i" unicode="&#xec;" horiz-adv-x="509" 
d="M446 1169h-61v-905h61v-264h-385v264h62v905h-62v267h385v-267z" />
    <glyph glyph-name="j" unicode="j" 
d="M508 1436h385v-267h-62v-1073l-94 -96h-581l-95 96v328h263v-156h245v901h-61v267z" />
    <glyph glyph-name="k" unicode="k" horiz-adv-x="1216" 
d="M1124 264h29v-264h-385v264h25l-226 342l-182 -256v-86h61v-264h-385v264h62v905h-62v267h385v-267h-61v-350l250 350h-23v267h385v-267h-30l-230 -321z" />
    <glyph glyph-name="l" unicode="l" 
d="M629 264v74h266v-338h-834v264h62v905h-62v267h385v-267h-61v-905h244z" />
    <glyph glyph-name="m" unicode="m" horiz-adv-x="1257" 
d="M1196 1169h-61v-905h61v-264h-385v264h59v656l-176 -351h-131l-178 351v-656h61v-264h-385v264h62v905h-62v267h324l244 -478l241 478h326v-267z" />
    <glyph glyph-name="n" unicode="n" horiz-adv-x="1116" 
d="M1055 1169h-62v-905h62v-264h-324l-346 817v-553h61v-264h-385v264h62v905h-62v267h324l346 -818v551h-63v267h387v-267z" />
    <glyph glyph-name="n" unicode="&#xf1;" horiz-adv-x="1116" 
d="M1055 1169h-62v-905h62v-264h-324l-346 817v-553h61v-264h-385v264h62v905h-62v267h324l346 -818v551h-63v267h387v-267z" />
    <glyph glyph-name="o" unicode="o" horiz-adv-x="894" 
d="M737 1436l94 -97v-1243l-94 -96h-581l-95 96v1243l95 97h581zM569 268v897h-245v-897h245z" />
    <glyph glyph-name="o" unicode="&#xf8;" horiz-adv-x="894" 
d="M737 1436l94 -97v-1243l-94 -96h-581l-95 96v1243l95 97h581zM569 268v897h-245v-897h245z" />
    <glyph glyph-name="o" unicode="&#xf6;" horiz-adv-x="894" 
d="M737 1436l94 -97v-1243l-94 -96h-581l-95 96v1243l95 97h581zM569 268v897h-245v-897h245z" />
    <glyph glyph-name="o" unicode="&#xf5;" horiz-adv-x="894" 
d="M737 1436l94 -97v-1243l-94 -96h-581l-95 96v1243l95 97h581zM569 268v897h-245v-897h245z" />
    <glyph glyph-name="o" unicode="&#xf4;" horiz-adv-x="894" 
d="M737 1436l94 -97v-1243l-94 -96h-581l-95 96v1243l95 97h581zM569 268v897h-245v-897h245z" />
    <glyph glyph-name="o" unicode="&#xf2;" horiz-adv-x="894" 
d="M737 1436l94 -97v-1243l-94 -96h-581l-95 96v1243l95 97h581zM569 268v897h-245v-897h245z" />
    <glyph glyph-name="p" unicode="p" horiz-adv-x="954" 
d="M799 1436l94 -97v-665l-94 -94h-414v-316h61v-264h-385v264h62v905h-62v267h738zM631 852v313h-246v-313h246z" />
    <glyph glyph-name="q" unicode="q" horiz-adv-x="894" 
d="M831 96l-94 -96h-53l90 -143h-239l-91 143h-288l-95 96v1243l95 97h581l94 -97v-1243zM569 268v897h-245v-897h245z" />
    <glyph glyph-name="r" unicode="r" horiz-adv-x="1017" 
d="M893 264h61v-264h-385v264h62v316h-246v-316h61v-264h-385v264h62v905h-62v267h738l94 -97v-532l-94 -96l94 -95v-352zM631 852v313h-246v-313h246z" />
    <glyph glyph-name="s" unicode="s" horiz-adv-x="894" 
d="M831 1012h-262v153h-245v-311h413l94 -96v-662l-94 -96h-581l-95 96v328h263v-156h245v316h-413l-95 94v661l95 97h581l94 -97v-327z" />
    <glyph glyph-name="s" unicode="&#xdf;" horiz-adv-x="894" 
d="M831 1012h-262v153h-245v-311h413l94 -96v-662l-94 -96h-581l-95 96v328h263v-156h245v316h-413l-95 94v661l95 97h581l94 -97v-327z" />
    <glyph glyph-name="t" unicode="t" horiz-adv-x="1124" 
d="M61 1436h1000v-338h-266v71h-99v-905h62v-264h-393v264h61v905h-98v-71h-267v338z" />
    <glyph glyph-name="u" unicode="u" horiz-adv-x="1017" 
d="M569 1436h385v-267h-61v-1073l-94 -96h-582l-94 96v1073h-62v267h385v-267h-61v-901h246v901h-62v267z" />
    <glyph glyph-name="u" unicode="&#xfc;" horiz-adv-x="1017" 
d="M569 1436h385v-267h-61v-1073l-94 -96h-582l-94 96v1073h-62v267h385v-267h-61v-901h246v901h-62v267z" />
    <glyph glyph-name="u" unicode="&#xfb;" horiz-adv-x="1017" 
d="M569 1436h385v-267h-61v-1073l-94 -96h-582l-94 96v1073h-62v267h385v-267h-61v-901h246v901h-62v267z" />
    <glyph glyph-name="u" unicode="&#xf9;" horiz-adv-x="1017" 
d="M569 1436h385v-267h-61v-1073l-94 -96h-582l-94 96v1073h-62v267h385v-267h-61v-901h246v901h-62v267z" />
    <glyph glyph-name="v" unicode="v" horiz-adv-x="1134" 
d="M688 1436h385v-267h-94l-213 -905h33v-264h-461v264h27l-213 905h-91v267h385v-267h-24l145 -614l144 614h-23v267z" />
    <glyph glyph-name="w" unicode="w" horiz-adv-x="1699" 
d="M1251 1436h385v-267h-92l-213 -905h33v-264h-463v264h29l-82 346l-82 -346h33v-264h-461v264h27l-213 905h-91v267h385v-267h-24l145 -614l144 614h-86v267h448v-267h-88l145 -614l146 614h-25v267z" />
    <glyph glyph-name="x" unicode="x" horiz-adv-x="1134" 
d="M1073 1169h-92l-236 -450l236 -455h92v-264h-385v264h25l-146 281l-145 -281h24v-264h-385v264h93l233 453l-235 452h-91v267h385v-267h-24l145 -278l144 278h-23v267h385v-267z" />
    <glyph glyph-name="y" unicode="y" horiz-adv-x="1134" 
d="M688 1436h385v-267h-94l-281 -540v-95v-37v-61v-172h62v-264h-385v264h59v363l-282 542h-91v267h385v-267h-24l145 -278l144 278h-23v267z" />
    <glyph glyph-name="y" unicode="&#xff;" horiz-adv-x="1134" 
d="M688 1436h385v-267h-94l-281 -540v-95v-37v-61v-172h62v-264h-385v264h59v363l-282 542h-91v267h385v-267h-24l145 -278l144 278h-23v267z" />
    <glyph glyph-name="y" unicode="&#xfd;" horiz-adv-x="1134" 
d="M688 1436h385v-267h-94l-281 -540v-95v-37v-61v-172h62v-264h-385v264h59v363l-282 542h-91v267h385v-267h-24l145 -278l144 278h-23v267z" />
    <glyph glyph-name="z" unicode="z" horiz-adv-x="958" 
d="M629 264v150h266v-414h-834l449 1169h-180v-147h-267v414h832l-449 -1172h183z" />
    <glyph glyph-name="nonbreakingspace" unicode="&#xa0;" horiz-adv-x="460" 
 />
    <glyph glyph-name="softhyphen" unicode="&#xad;" horiz-adv-x="0" 
 />
    <glyph glyph-name="Aacute" unicode="&#xc1;" horiz-adv-x="1134" 
d="M834 1792l-267 -270l-131 129l269 272zM981 264h92v-264h-385v264h25l-25 105h-242l-24 -105h24v-264h-385v264h93l213 905h-31v267h461v-267h-29zM510 635h115l-58 246z" />
    <glyph glyph-name="Eacute" unicode="&#xc9;" 
d="M895 1098h-266v71h-244v-321h326v-264h-326v-320h244v74h266v-338h-834v264h62v905h-62v267h834v-338zM727 1792l-268 -270l-129 129l268 272z" />
    <glyph glyph-name="Edieresis" unicode="&#xcb;" 
d="M895 1098h-266v71h-244v-321h326v-264h-326v-320h244v74h266v-338h-834v264h62v905h-62v267h834v-338zM438 1589h-209v211h209v-211zM766 1589h-209v211h209v-211z" />
    <glyph glyph-name="Iacute" unicode="&#xcd;" horiz-adv-x="559" 
d="M61 1436h385v-267h-61v-905h61v-264h-385v264h62v905h-62v267zM498 1792l-267 -270l-131 129l269 272z" />
    <glyph glyph-name="Oacute" unicode="&#xd3;" horiz-adv-x="892" 
d="M737 1436l94 -97v-1243l-94 -96h-581l-95 96v1243l95 97h581zM569 268v897h-245v-897h245zM645 1810l-268 -270l-129 131l268 271z" />
    <glyph glyph-name="Uacute" unicode="&#xda;" horiz-adv-x="1015" 
d="M569 1436h385v-267h-61v-1073l-94 -96h-582l-94 96v1073h-62v267h385v-267h-61v-901h246v901h-62v267zM707 1792l-267 -270l-131 129l269 272z" />
    <glyph glyph-name="aacute" unicode="&#xe1;" horiz-adv-x="1134" 
d="M834 1792l-267 -270l-131 129l269 272zM981 264h92v-264h-385v264h25l-25 105h-242l-24 -105h24v-264h-385v264h93l213 905h-31v267h461v-267h-29zM510 635h115l-58 246z" />
    <glyph glyph-name="eacute" unicode="&#xe9;" 
d="M895 1098h-266v71h-244v-321h326v-264h-326v-320h244v74h266v-338h-834v264h62v905h-62v267h834v-338zM727 1792l-268 -270l-129 129l268 272z" />
    <glyph glyph-name="edieresis" unicode="&#xeb;" 
d="M895 1098h-266v71h-244v-321h326v-264h-326v-320h244v74h266v-338h-834v264h62v905h-62v267h834v-338zM438 1589h-209v211h209v-211zM766 1589h-209v211h209v-211z" />
    <glyph glyph-name="iacute" unicode="&#xed;" horiz-adv-x="559" 
d="M61 1436h385v-267h-61v-905h61v-264h-385v264h62v905h-62v267zM498 1792l-267 -270l-131 129l269 272z" />
    <glyph glyph-name="oacute" unicode="&#xf3;" horiz-adv-x="892" 
d="M737 1436l94 -97v-1243l-94 -96h-581l-95 96v1243l95 97h581zM569 268v897h-245v-897h245zM645 1810l-268 -270l-129 131l268 271z" />
    <glyph glyph-name="uacute" unicode="&#xfa;" horiz-adv-x="1015" 
d="M569 1436h385v-267h-61v-1073l-94 -96h-582l-94 96v1073h-62v267h385v-267h-61v-901h246v901h-62v267zM707 1792l-267 -270l-131 129l269 272z" />
    <glyph glyph-name="Cacute" unicode="&#x106;" horiz-adv-x="892" 
d="M831 1010h-262v155h-245v-897h245v156h262v-328l-94 -96h-581l-95 96v1243l95 97h581l94 -97v-329zM670 1792l-269 -270l-129 129l269 272z" />
    <glyph glyph-name="cacute" unicode="&#x107;" horiz-adv-x="892" 
d="M831 1010h-262v155h-245v-897h245v156h262v-328l-94 -96h-581l-95 96v1243l95 97h581l94 -97v-329zM670 1792l-269 -270l-129 129l269 272z" />
    <glyph glyph-name="quoteright" unicode="&#x2019;" horiz-adv-x="385" 
d="M324 1460v-266l-103 -170h-149l65 170h-76v266h263z" />
    </font>
</defs>
</svg>
